<svg xmlns="http://www.w3.org/2000/svg" width="39" height="39.001"><g data-name="user (1)"><path data-name="Path 112" d="M13.696 30.577l-5.819 3.174a5.229 5.229 0 00-.934.665 19.488 19.488 0 0025.04.065 5.162 5.162 0 00-1.026-.687l-6.23-3.116a2.376 2.376 0 01-1.314-2.125v-2.445a9.41 9.41 0 00.589-.758 14.337 14.337 0 001.937-3.9 1.957 1.957 0 001.389-1.863v-2.611a1.948 1.948 0 00-.652-1.446v-3.772s.775-5.871-7.175-5.871-7.175 5.87-7.175 5.87v3.772a1.945 1.945 0 00-.652 1.446v2.612a1.956 1.956 0 00.9 1.642 12.949 12.949 0 002.359 4.881v2.384a2.379 2.379 0 01-1.237 2.083z" fill="#e7eced"/><g data-name="Group 302"><path data-name="Path 113" d="M19.834 0A19.488 19.488 0 006.953 34.41a5.182 5.182 0 01.925-.658l5.822-3.174a2.377 2.377 0 001.238-2.086v-2.385a12.937 12.937 0 01-2.359-4.881 1.957 1.957 0 01-.9-1.642v-2.609a1.948 1.948 0 01.652-1.446v-3.772s-.775-5.87 7.175-5.87 7.175 5.87 7.175 5.87v3.772a1.945 1.945 0 01.652 1.446v2.609a1.957 1.957 0 01-1.388 1.862A14.337 14.337 0 0124 25.35a9.41 9.41 0 01-.589.758v2.445a2.375 2.375 0 001.314 2.125l6.231 3.115a5.188 5.188 0 011.023.686A19.5 19.5 0 0019.834 0z" fill="#5e7582"/></g></g></svg>