<?xml version="1.0" standalone="no"?>
<!-- Generator: Adobe Fireworks 10, Export SVG Extension by Aaron Beall (http://fireworks.abeall.com) . Version: 0.6.1  -->
<!DOCTYPE svg PUBLIC "-//W3C//DTD SVG 1.1//EN" "http://www.w3.org/Graphics/SVG/1.1/DTD/svg11.dtd">
<svg id="Untitled-Page%201" viewBox="0 0 292 257" style="background-color:#ffffff00" version="1.1"
	xmlns="http://www.w3.org/2000/svg" xmlns:xlink="http://www.w3.org/1999/xlink" xml:space="preserve"
	x="0px" y="0px" width="292px" height="257px"
>
	<g id="Layer%201">
		<g>
			<path d="M 1.2754 10.5993 C 1.2754 4.6375 4.8617 1 10.7393 1 L 282.0353 1 C 287.9128 1 291.4996 4.6375 291.4996 10.5993 L 291.4996 246.4007 C 291.4996 252.3627 287.9128 256 282.0353 256 L 10.7393 256 C 4.8617 256 1.2754 252.3627 1.2754 246.4007 L 1.2754 10.5993 Z" stroke="#cacad0" stroke-width="1" fill="#ffffff"/>
		</g>
		<path id="Ellipse" d="M 24.2931 10 C 24.2931 8.3431 25.6373 7 27.2954 7 C 28.9536 7 30.2977 8.3431 30.2977 10 C 30.2977 11.6569 28.9536 13 27.2954 13 C 25.6373 13 24.2931 11.6569 24.2931 10 Z" fill="#dae0e6"/>
		<path id="Ellipse2" d="M 34.3009 10 C 34.3009 8.3431 35.645 7 37.3032 7 C 38.9613 7 40.3055 8.3431 40.3055 10 C 40.3055 11.6569 38.9613 13 37.3032 13 C 35.645 13 34.3009 11.6569 34.3009 10 Z" fill="#dae0e6"/>
		<path id="Ellipse3" d="M 44.3086 10 C 44.3086 8.3431 45.6528 7 47.3109 7 C 48.969 7 50.3132 8.3431 50.3132 10 C 50.3132 11.6569 48.969 13 47.3109 13 C 45.6528 13 44.3086 11.6569 44.3086 10 Z" fill="#dae0e6"/>
		<path id="Line" opacity="0.502" d="M 1.5004 19.5 L 291.7246 19.5 " stroke="#b9b9c8" stroke-width="1" fill="none"/>
		<g>
			<path d="M 209 217.4663 C 209 217.1929 209.2524 217 209.6104 217 L 211.3896 217 C 211.7476 217 212 217.1929 212 217.4663 L 212 219.5337 C 212 219.7913 211.7476 220 211.3896 220 L 209.6104 220 C 209.2524 220 209 219.7913 209 219.5337 L 209 217.4663 Z" fill="#ffffff"/>
		</g>
		<g>
			<path d="M 146.1451 91.0482 C 146.1451 90.1296 147.1403 89.4819 148.5516 89.4819 L 172.0452 89.4819 C 173.4564 89.4819 174.4517 90.1296 174.4517 91.0482 L 174.4517 91.0482 C 174.4517 91.9132 173.4564 92.6144 172.0452 92.6144 L 148.5516 92.6144 C 147.1403 92.6144 146.1451 91.9132 146.1451 91.0482 L 146.1451 91.0482 Z" fill="#a7b7c9"/>
		</g>
		<g>
			<path d="M 150.5483 96.0602 C 150.5483 95.3826 150.8901 95.1205 151.7733 95.1205 L 168.1943 95.1205 C 169.0776 95.1205 169.4193 95.3826 169.4193 96.0602 L 169.4193 96.0602 C 169.4193 96.5793 169.0776 97 168.1943 97 L 151.7733 97 C 150.8901 97 150.5483 96.5793 150.5483 96.0602 L 150.5483 96.0602 Z" fill="#e8ebf0"/>
		</g>
		<g>
			<path d="M 32.9193 91.0482 C 32.9193 90.1296 33.9146 89.4819 35.3258 89.4819 L 58.8193 89.4819 C 60.2307 89.4819 61.2258 90.1296 61.2258 91.0482 L 61.2258 91.0482 C 61.2258 91.9132 60.2307 92.6144 58.8193 92.6144 L 35.3258 92.6144 C 33.9146 92.6144 32.9193 91.9132 32.9193 91.0482 L 32.9193 91.0482 Z" fill="#a7b7c9"/>
		</g>
		<g>
			<path d="M 37.3226 96.0602 C 37.3226 95.3826 37.6643 95.1205 38.5476 95.1205 L 54.9686 95.1205 C 55.8518 95.1205 56.1936 95.3826 56.1936 96.0602 L 56.1936 96.0602 C 56.1936 96.5793 55.8518 97 54.9686 97 L 38.5476 97 C 37.6643 97 37.3226 96.5793 37.3226 96.0602 L 37.3226 96.0602 Z" fill="#e8ebf0"/>
		</g>
		<g opacity="0.251">
			<path d="M 81.3549 49.7359 C 81.3549 46.1889 82.1873 45 84.6703 45 L 122.0713 45 C 124.5544 45 125.3871 46.1889 125.3871 49.7359 L 125.3871 77.8544 C 125.3871 81.4015 124.5544 82.5903 122.0713 82.5903 L 84.6703 82.5903 C 82.1873 82.5903 81.3549 81.4015 81.3549 77.8544 L 81.3549 49.7359 Z" fill="#a7b7c9"/>
		</g>
		<g opacity="0.251">
			<path d="M 137.9678 49.7359 C 137.9678 46.1889 138.8 45 141.2831 45 L 178.6842 45 C 181.1674 45 182 46.1889 182 49.7359 L 182 77.8544 C 182 81.4015 181.1674 82.5903 178.6842 82.5903 L 141.2831 82.5903 C 138.8 82.5903 137.9678 81.4015 137.9678 77.8544 L 137.9678 49.7359 Z" fill="#a7b7c9"/>
		</g>
		<g opacity="0.251">
			<path d="M 26 49.7359 C 26 46.1889 26.8324 45 29.3154 45 L 66.7164 45 C 69.1996 45 70.0322 46.1889 70.0322 49.7359 L 70.0322 77.8544 C 70.0322 81.4015 69.1996 82.5903 66.7164 82.5903 L 29.3154 82.5903 C 26.8324 82.5903 26 81.4015 26 77.8544 L 26 49.7359 Z" fill="#a7b7c9"/>
		</g>
		<g>
			<path d="M 89.5322 91.0482 C 89.5322 90.1296 90.5275 89.4819 91.9387 89.4819 L 115.4323 89.4819 C 116.8435 89.4819 117.8387 90.1296 117.8387 91.0482 L 117.8387 91.0482 C 117.8387 91.9132 116.8435 92.6144 115.4323 92.6144 L 91.9387 92.6144 C 90.5275 92.6144 89.5322 91.9132 89.5322 91.0482 L 89.5322 91.0482 Z" fill="#a7b7c9"/>
		</g>
		<g>
			<path d="M 93.9354 96.0602 C 93.9354 95.3826 94.2772 95.1205 95.1604 95.1205 L 111.5815 95.1205 C 112.4647 95.1205 112.8064 95.3826 112.8064 96.0602 L 112.8064 96.0602 C 112.8064 96.5793 112.4647 97 111.5815 97 L 95.1604 97 C 94.2772 97 93.9354 96.5793 93.9354 96.0602 L 93.9354 96.0602 Z" fill="#e8ebf0"/>
		</g>
		<g id="archive-black-box">
			<path d="M 49.4548 64.2667 C 49.3495 64.37 49.2247 64.4216 49.0806 64.4216 L 46.9515 64.4216 C 46.8075 64.4216 46.6826 64.3699 46.5773 64.2667 C 46.4719 64.1633 46.4193 64.041 46.4193 63.8995 C 46.4193 63.7581 46.4719 63.6357 46.5773 63.5324 C 46.6826 63.4291 46.8074 63.3774 46.9515 63.3774 L 49.0807 63.3774 C 49.2247 63.3774 49.3495 63.4291 49.455 63.5324 C 49.5603 63.6357 49.6129 63.7581 49.6129 63.8995 C 49.6129 64.041 49.5602 64.1633 49.4548 64.2667 L 49.4548 64.2667 ZM 53.8711 61.8112 L 42.1614 61.8112 C 42.0171 61.8112 41.8923 61.8629 41.7871 61.9662 C 41.6818 62.0695 41.629 62.1919 41.629 62.3333 L 41.629 70.1646 C 41.629 70.306 41.6818 70.4284 41.7871 70.5317 C 41.8923 70.635 42.0171 70.6868 42.1614 70.6868 L 53.8711 70.6868 C 54.0153 70.6868 54.1398 70.635 54.2452 70.5317 C 54.3506 70.4284 54.4032 70.306 54.4032 70.1646 L 54.4032 62.3333 C 54.4032 62.1918 54.3507 62.0695 54.2452 61.9662 C 54.14 61.8629 54.0153 61.8112 53.8711 61.8112 L 53.8711 61.8112 Z" fill="#a7b7c9"/>
			<path d="M 54.7776 58.3116 C 54.6722 58.2083 54.5476 58.1566 54.4033 58.1566 L 41.629 58.1566 C 41.4849 58.1566 41.3601 58.2083 41.2548 58.3116 C 41.1494 58.4149 41.0968 58.5372 41.0968 58.6786 L 41.0968 60.767 C 41.0968 60.9084 41.1494 61.0308 41.2548 61.1341 C 41.3601 61.2375 41.4849 61.2891 41.629 61.2891 L 54.4032 61.2891 C 54.5472 61.2891 54.6721 61.2375 54.7776 61.1341 C 54.8828 61.0308 54.9354 60.9084 54.9354 60.767 L 54.9354 58.6786 C 54.9354 58.5372 54.8828 58.4149 54.7776 58.3116 L 54.7776 58.3116 Z" fill="#a7b7c9"/>
		</g>
		<g id="archive-black-box2">
			<path d="M 105.4387 64.2667 C 105.3334 64.37 105.2086 64.4216 105.0645 64.4216 L 102.9354 64.4216 C 102.7913 64.4216 102.6665 64.3699 102.5612 64.2667 C 102.4558 64.1633 102.4032 64.041 102.4032 63.8995 C 102.4032 63.7581 102.4558 63.6357 102.5612 63.5324 C 102.6665 63.4291 102.7913 63.3774 102.9354 63.3774 L 105.0646 63.3774 C 105.2086 63.3774 105.3334 63.4291 105.4388 63.5324 C 105.5442 63.6357 105.5968 63.7581 105.5968 63.8995 C 105.5968 64.041 105.5441 64.1633 105.4387 64.2667 L 105.4387 64.2667 ZM 109.855 61.8112 L 98.1453 61.8112 C 98.001 61.8112 97.8762 61.8629 97.771 61.9662 C 97.6656 62.0695 97.6129 62.1919 97.6129 62.3333 L 97.6129 70.1646 C 97.6129 70.306 97.6656 70.4284 97.771 70.5317 C 97.8762 70.635 98.001 70.6868 98.1453 70.6868 L 109.855 70.6868 C 109.999 70.6868 110.1237 70.635 110.2291 70.5317 C 110.3344 70.4284 110.3871 70.306 110.3871 70.1646 L 110.3871 62.3333 C 110.3871 62.1918 110.3346 62.0695 110.2291 61.9662 C 110.1239 61.8629 109.999 61.8112 109.855 61.8112 L 109.855 61.8112 Z" fill="#a7b7c9"/>
			<path d="M 110.7615 58.3116 C 110.6561 58.2083 110.5314 58.1566 110.3872 58.1566 L 97.6129 58.1566 C 97.4688 58.1566 97.344 58.2083 97.2386 58.3116 C 97.1333 58.4149 97.0807 58.5372 97.0807 58.6786 L 97.0807 60.767 C 97.0807 60.9084 97.1333 61.0308 97.2386 61.1341 C 97.344 61.2375 97.4688 61.2891 97.6129 61.2891 L 110.3871 61.2891 C 110.5311 61.2891 110.656 61.2375 110.7615 61.1341 C 110.8667 61.0308 110.9193 60.9084 110.9193 60.767 L 110.9193 58.6786 C 110.9193 58.5372 110.8667 58.4149 110.7615 58.3116 L 110.7615 58.3116 Z" fill="#a7b7c9"/>
		</g>
		<g id="archive-black-box3">
			<path d="M 161.4225 64.2667 C 161.3173 64.37 161.1925 64.4216 161.0483 64.4216 L 158.9193 64.4216 C 158.7751 64.4216 158.6504 64.3699 158.545 64.2667 C 158.4397 64.1633 158.3871 64.041 158.3871 63.8995 C 158.3871 63.7581 158.4397 63.6357 158.545 63.5324 C 158.6504 63.4291 158.7751 63.3774 158.9193 63.3774 L 161.0485 63.3774 C 161.1925 63.3774 161.3173 63.4291 161.4227 63.5324 C 161.5281 63.6357 161.5807 63.7581 161.5807 63.8995 C 161.5807 64.041 161.5278 64.1633 161.4225 64.2667 L 161.4225 64.2667 ZM 165.8389 61.8112 L 154.129 61.8112 C 153.9849 61.8112 153.8601 61.8629 153.7549 61.9662 C 153.6494 62.0695 153.5968 62.1919 153.5968 62.3333 L 153.5968 70.1646 C 153.5968 70.306 153.6494 70.4284 153.7549 70.5317 C 153.8601 70.635 153.9849 70.6868 154.129 70.6868 L 165.8389 70.6868 C 165.9829 70.6868 166.1075 70.635 166.213 70.5317 C 166.3182 70.4284 166.371 70.306 166.371 70.1646 L 166.371 62.3333 C 166.371 62.1918 166.3185 62.0695 166.213 61.9662 C 166.1077 61.8629 165.9829 61.8112 165.8389 61.8112 L 165.8389 61.8112 Z" fill="#a7b7c9"/>
			<path d="M 166.7454 58.3116 C 166.64 58.2083 166.5153 58.1566 166.3711 58.1566 L 153.5968 58.1566 C 153.4526 58.1566 153.3279 58.2083 153.2225 58.3116 C 153.1172 58.4149 153.0646 58.5372 153.0646 58.6786 L 153.0646 60.767 C 153.0646 60.9084 153.1172 61.0308 153.2225 61.1341 C 153.3279 61.2375 153.4526 61.2891 153.5968 61.2891 L 166.371 61.2891 C 166.515 61.2891 166.6399 61.2375 166.7454 61.1341 C 166.8506 61.0308 166.9032 60.9084 166.9032 60.767 L 166.9032 58.6786 C 166.9032 58.5372 166.8506 58.4149 166.7454 58.3116 L 166.7454 58.3116 Z" fill="#a7b7c9"/>
		</g>
		<g>
			<path d="M 146.1451 160.0482 C 146.1451 159.1296 147.1403 158.4819 148.5516 158.4819 L 172.0452 158.4819 C 173.4564 158.4819 174.4517 159.1296 174.4517 160.0482 L 174.4517 160.0482 C 174.4517 160.9132 173.4564 161.6144 172.0452 161.6144 L 148.5516 161.6144 C 147.1403 161.6144 146.1451 160.9132 146.1451 160.0482 L 146.1451 160.0482 Z" fill="#a7b7c9"/>
		</g>
		<g>
			<path d="M 150.5483 165.0602 C 150.5483 164.3826 150.8901 164.1205 151.7733 164.1205 L 168.1943 164.1205 C 169.0776 164.1205 169.4193 164.3826 169.4193 165.0602 L 169.4193 165.0602 C 169.4193 165.5793 169.0776 166 168.1943 166 L 151.7733 166 C 150.8901 166 150.5483 165.5793 150.5483 165.0602 L 150.5483 165.0602 Z" fill="#e8ebf0"/>
		</g>
		<g>
			<path d="M 32.9193 160.0482 C 32.9193 159.1296 33.9146 158.4819 35.3258 158.4819 L 58.8193 158.4819 C 60.2307 158.4819 61.2258 159.1296 61.2258 160.0482 L 61.2258 160.0482 C 61.2258 160.9132 60.2307 161.6144 58.8193 161.6144 L 35.3258 161.6144 C 33.9146 161.6144 32.9193 160.9132 32.9193 160.0482 L 32.9193 160.0482 Z" fill="#a7b7c9"/>
		</g>
		<g>
			<path d="M 37.3226 165.0602 C 37.3226 164.3826 37.6643 164.1205 38.5476 164.1205 L 54.9686 164.1205 C 55.8518 164.1205 56.1936 164.3826 56.1936 165.0602 L 56.1936 165.0602 C 56.1936 165.5793 55.8518 166 54.9686 166 L 38.5476 166 C 37.6643 166 37.3226 165.5793 37.3226 165.0602 L 37.3226 165.0602 Z" fill="#e8ebf0"/>
		</g>
		<g opacity="0.251">
			<path d="M 81.3549 118.7359 C 81.3549 115.1889 82.1873 114 84.6703 114 L 122.0713 114 C 124.5544 114 125.3871 115.1889 125.3871 118.7359 L 125.3871 146.8544 C 125.3871 150.4015 124.5544 151.5903 122.0713 151.5903 L 84.6703 151.5903 C 82.1873 151.5903 81.3549 150.4015 81.3549 146.8544 L 81.3549 118.7359 Z" fill="#a7b7c9"/>
		</g>
		<g opacity="0.251">
			<path d="M 137.9678 118.7359 C 137.9678 115.1889 138.8 114 141.2831 114 L 178.6842 114 C 181.1674 114 182 115.1889 182 118.7359 L 182 146.8544 C 182 150.4015 181.1674 151.5903 178.6842 151.5903 L 141.2831 151.5903 C 138.8 151.5903 137.9678 150.4015 137.9678 146.8544 L 137.9678 118.7359 Z" fill="#a7b7c9"/>
		</g>
		<g opacity="0.251">
			<path d="M 26 118.7359 C 26 115.1889 26.8324 114 29.3154 114 L 66.7164 114 C 69.1996 114 70.0322 115.1889 70.0322 118.7359 L 70.0322 146.8544 C 70.0322 150.4015 69.1996 151.5903 66.7164 151.5903 L 29.3154 151.5903 C 26.8324 151.5903 26 150.4015 26 146.8544 L 26 118.7359 Z" fill="#a7b7c9"/>
		</g>
		<g>
			<path d="M 89.5322 160.0482 C 89.5322 159.1296 90.5275 158.4819 91.9387 158.4819 L 115.4323 158.4819 C 116.8435 158.4819 117.8387 159.1296 117.8387 160.0482 L 117.8387 160.0482 C 117.8387 160.9132 116.8435 161.6144 115.4323 161.6144 L 91.9387 161.6144 C 90.5275 161.6144 89.5322 160.9132 89.5322 160.0482 L 89.5322 160.0482 Z" fill="#a7b7c9"/>
		</g>
		<g>
			<path d="M 93.9354 165.0602 C 93.9354 164.3826 94.2772 164.1205 95.1604 164.1205 L 111.5815 164.1205 C 112.4647 164.1205 112.8064 164.3826 112.8064 165.0602 L 112.8064 165.0602 C 112.8064 165.5793 112.4647 166 111.5815 166 L 95.1604 166 C 94.2772 166 93.9354 165.5793 93.9354 165.0602 L 93.9354 165.0602 Z" fill="#e8ebf0"/>
		</g>
		<g id="archive-black-box4">
			<path d="M 49.4548 133.2667 C 49.3495 133.37 49.2247 133.4216 49.0806 133.4216 L 46.9515 133.4216 C 46.8075 133.4216 46.6826 133.3699 46.5773 133.2667 C 46.4719 133.1633 46.4193 133.041 46.4193 132.8995 C 46.4193 132.7581 46.4719 132.6357 46.5773 132.5324 C 46.6826 132.4291 46.8074 132.3774 46.9515 132.3774 L 49.0807 132.3774 C 49.2247 132.3774 49.3495 132.4291 49.455 132.5324 C 49.5603 132.6357 49.6129 132.7581 49.6129 132.8995 C 49.6129 133.041 49.5602 133.1633 49.4548 133.2667 L 49.4548 133.2667 ZM 53.8711 130.8112 L 42.1614 130.8112 C 42.0171 130.8112 41.8923 130.8629 41.7871 130.9662 C 41.6818 131.0695 41.629 131.1919 41.629 131.3333 L 41.629 139.1646 C 41.629 139.306 41.6818 139.4284 41.7871 139.5317 C 41.8923 139.635 42.0171 139.6868 42.1614 139.6868 L 53.8711 139.6868 C 54.0153 139.6868 54.1398 139.635 54.2452 139.5317 C 54.3506 139.4284 54.4032 139.306 54.4032 139.1646 L 54.4032 131.3333 C 54.4032 131.1918 54.3507 131.0695 54.2452 130.9662 C 54.14 130.8629 54.0153 130.8112 53.8711 130.8112 L 53.8711 130.8112 Z" fill="#a7b7c9"/>
			<path d="M 54.7776 127.3116 C 54.6722 127.2083 54.5476 127.1566 54.4033 127.1566 L 41.629 127.1566 C 41.4849 127.1566 41.3601 127.2083 41.2548 127.3116 C 41.1494 127.4149 41.0968 127.5372 41.0968 127.6786 L 41.0968 129.767 C 41.0968 129.9084 41.1494 130.0308 41.2548 130.1341 C 41.3601 130.2375 41.4849 130.2891 41.629 130.2891 L 54.4032 130.2891 C 54.5472 130.2891 54.6721 130.2375 54.7776 130.1341 C 54.8828 130.0308 54.9354 129.9084 54.9354 129.767 L 54.9354 127.6786 C 54.9354 127.5372 54.8828 127.4149 54.7776 127.3116 L 54.7776 127.3116 Z" fill="#a7b7c9"/>
		</g>
		<g id="archive-black-box5">
			<path d="M 105.4387 133.2667 C 105.3334 133.37 105.2086 133.4216 105.0645 133.4216 L 102.9354 133.4216 C 102.7913 133.4216 102.6665 133.3699 102.5612 133.2667 C 102.4558 133.1633 102.4032 133.041 102.4032 132.8995 C 102.4032 132.7581 102.4558 132.6357 102.5612 132.5324 C 102.6665 132.4291 102.7913 132.3774 102.9354 132.3774 L 105.0646 132.3774 C 105.2086 132.3774 105.3334 132.4291 105.4388 132.5324 C 105.5442 132.6357 105.5968 132.7581 105.5968 132.8995 C 105.5968 133.041 105.5441 133.1633 105.4387 133.2667 L 105.4387 133.2667 ZM 109.855 130.8112 L 98.1453 130.8112 C 98.001 130.8112 97.8762 130.8629 97.771 130.9662 C 97.6656 131.0695 97.6129 131.1919 97.6129 131.3333 L 97.6129 139.1646 C 97.6129 139.306 97.6656 139.4284 97.771 139.5317 C 97.8762 139.635 98.001 139.6868 98.1453 139.6868 L 109.855 139.6868 C 109.999 139.6868 110.1237 139.635 110.2291 139.5317 C 110.3344 139.4284 110.3871 139.306 110.3871 139.1646 L 110.3871 131.3333 C 110.3871 131.1918 110.3346 131.0695 110.2291 130.9662 C 110.1239 130.8629 109.999 130.8112 109.855 130.8112 L 109.855 130.8112 Z" fill="#a7b7c9"/>
			<path d="M 110.7615 127.3116 C 110.6561 127.2083 110.5314 127.1566 110.3872 127.1566 L 97.6129 127.1566 C 97.4688 127.1566 97.344 127.2083 97.2386 127.3116 C 97.1333 127.4149 97.0807 127.5372 97.0807 127.6786 L 97.0807 129.767 C 97.0807 129.9084 97.1333 130.0308 97.2386 130.1341 C 97.344 130.2375 97.4688 130.2891 97.6129 130.2891 L 110.3871 130.2891 C 110.5311 130.2891 110.656 130.2375 110.7615 130.1341 C 110.8667 130.0308 110.9193 129.9084 110.9193 129.767 L 110.9193 127.6786 C 110.9193 127.5372 110.8667 127.4149 110.7615 127.3116 L 110.7615 127.3116 Z" fill="#a7b7c9"/>
		</g>
		<g id="archive-black-box6">
			<path d="M 161.4225 133.2667 C 161.3173 133.37 161.1925 133.4216 161.0483 133.4216 L 158.9193 133.4216 C 158.7751 133.4216 158.6504 133.3699 158.545 133.2667 C 158.4397 133.1633 158.3871 133.041 158.3871 132.8995 C 158.3871 132.7581 158.4397 132.6357 158.545 132.5324 C 158.6504 132.4291 158.7751 132.3774 158.9193 132.3774 L 161.0485 132.3774 C 161.1925 132.3774 161.3173 132.4291 161.4227 132.5324 C 161.5281 132.6357 161.5807 132.7581 161.5807 132.8995 C 161.5807 133.041 161.5278 133.1633 161.4225 133.2667 L 161.4225 133.2667 ZM 165.8389 130.8112 L 154.129 130.8112 C 153.9849 130.8112 153.8601 130.8629 153.7549 130.9662 C 153.6494 131.0695 153.5968 131.1919 153.5968 131.3333 L 153.5968 139.1646 C 153.5968 139.306 153.6494 139.4284 153.7549 139.5317 C 153.8601 139.635 153.9849 139.6868 154.129 139.6868 L 165.8389 139.6868 C 165.9829 139.6868 166.1075 139.635 166.213 139.5317 C 166.3182 139.4284 166.371 139.306 166.371 139.1646 L 166.371 131.3333 C 166.371 131.1918 166.3185 131.0695 166.213 130.9662 C 166.1077 130.8629 165.9829 130.8112 165.8389 130.8112 L 165.8389 130.8112 Z" fill="#a7b7c9"/>
			<path d="M 166.7454 127.3116 C 166.64 127.2083 166.5153 127.1566 166.3711 127.1566 L 153.5968 127.1566 C 153.4526 127.1566 153.3279 127.2083 153.2225 127.3116 C 153.1172 127.4149 153.0646 127.5372 153.0646 127.6786 L 153.0646 129.767 C 153.0646 129.9084 153.1172 130.0308 153.2225 130.1341 C 153.3279 130.2375 153.4526 130.2891 153.5968 130.2891 L 166.371 130.2891 C 166.515 130.2891 166.6399 130.2375 166.7454 130.1341 C 166.8506 130.0308 166.9032 129.9084 166.9032 129.767 L 166.9032 127.6786 C 166.9032 127.5372 166.8506 127.4149 166.7454 127.3116 L 166.7454 127.3116 Z" fill="#a7b7c9"/>
		</g>
		<g>
			<path d="M 146.1451 228.0482 C 146.1451 227.1296 147.1403 226.4819 148.5516 226.4819 L 172.0452 226.4819 C 173.4564 226.4819 174.4517 227.1296 174.4517 228.0482 L 174.4517 228.0482 C 174.4517 228.9132 173.4564 229.6144 172.0452 229.6144 L 148.5516 229.6144 C 147.1403 229.6144 146.1451 228.9132 146.1451 228.0482 L 146.1451 228.0482 Z" fill="#a7b7c9"/>
		</g>
		<g>
			<path d="M 150.5483 233.0602 C 150.5483 232.3826 150.8901 232.1205 151.7733 232.1205 L 168.1943 232.1205 C 169.0776 232.1205 169.4193 232.3826 169.4193 233.0602 L 169.4193 233.0602 C 169.4193 233.5793 169.0776 234 168.1943 234 L 151.7733 234 C 150.8901 234 150.5483 233.5793 150.5483 233.0602 L 150.5483 233.0602 Z" fill="#e8ebf0"/>
		</g>
		<g opacity="0.251">
			<path d="M 81.3549 186.7359 C 81.3549 183.1889 82.1873 182 84.6703 182 L 122.0713 182 C 124.5544 182 125.3871 183.1889 125.3871 186.7359 L 125.3871 214.8544 C 125.3871 218.4015 124.5544 219.5903 122.0713 219.5903 L 84.6703 219.5903 C 82.1873 219.5903 81.3549 218.4015 81.3549 214.8544 L 81.3549 186.7359 Z" fill="#a7b7c9"/>
		</g>
		<g opacity="0.251">
			<path d="M 137.9678 186.7359 C 137.9678 183.1889 138.8 182 141.2831 182 L 178.6842 182 C 181.1674 182 182 183.1889 182 186.7359 L 182 214.8544 C 182 218.4015 181.1674 219.5903 178.6842 219.5903 L 141.2831 219.5903 C 138.8 219.5903 137.9678 218.4015 137.9678 214.8544 L 137.9678 186.7359 Z" fill="#a7b7c9"/>
		</g>
		<g>
			<path d="M 89.5322 228.0482 C 89.5322 227.1296 90.5275 226.4819 91.9387 226.4819 L 115.4323 226.4819 C 116.8435 226.4819 117.8387 227.1296 117.8387 228.0482 L 117.8387 228.0482 C 117.8387 228.9132 116.8435 229.6144 115.4323 229.6144 L 91.9387 229.6144 C 90.5275 229.6144 89.5322 228.9132 89.5322 228.0482 L 89.5322 228.0482 Z" fill="#a7b7c9"/>
		</g>
		<g>
			<path d="M 93.9354 233.0602 C 93.9354 232.3826 94.2772 232.1205 95.1604 232.1205 L 111.5815 232.1205 C 112.4647 232.1205 112.8064 232.3826 112.8064 233.0602 L 112.8064 233.0602 C 112.8064 233.5793 112.4647 234 111.5815 234 L 95.1604 234 C 94.2772 234 93.9354 233.5793 93.9354 233.0602 L 93.9354 233.0602 Z" fill="#e8ebf0"/>
		</g>
		<g id="archive-black-box7">
			<path d="M 105.4387 201.2667 C 105.3334 201.37 105.2086 201.4216 105.0645 201.4216 L 102.9354 201.4216 C 102.7913 201.4216 102.6665 201.3699 102.5612 201.2667 C 102.4558 201.1633 102.4032 201.041 102.4032 200.8995 C 102.4032 200.7581 102.4558 200.6357 102.5612 200.5324 C 102.6665 200.4291 102.7913 200.3774 102.9354 200.3774 L 105.0646 200.3774 C 105.2086 200.3774 105.3334 200.4291 105.4388 200.5324 C 105.5442 200.6357 105.5968 200.7581 105.5968 200.8995 C 105.5968 201.041 105.5441 201.1633 105.4387 201.2667 L 105.4387 201.2667 ZM 109.855 198.8112 L 98.1453 198.8112 C 98.001 198.8112 97.8762 198.8629 97.771 198.9662 C 97.6656 199.0695 97.6129 199.1919 97.6129 199.3333 L 97.6129 207.1646 C 97.6129 207.306 97.6656 207.4284 97.771 207.5317 C 97.8762 207.635 98.001 207.6868 98.1453 207.6868 L 109.855 207.6868 C 109.999 207.6868 110.1237 207.635 110.2291 207.5317 C 110.3344 207.4284 110.3871 207.306 110.3871 207.1646 L 110.3871 199.3333 C 110.3871 199.1918 110.3346 199.0695 110.2291 198.9662 C 110.1239 198.8629 109.999 198.8112 109.855 198.8112 L 109.855 198.8112 Z" fill="#a7b7c9"/>
			<path d="M 110.7615 195.3116 C 110.6561 195.2083 110.5314 195.1566 110.3872 195.1566 L 97.6129 195.1566 C 97.4688 195.1566 97.344 195.2083 97.2386 195.3116 C 97.1333 195.4149 97.0807 195.5372 97.0807 195.6786 L 97.0807 197.767 C 97.0807 197.9084 97.1333 198.0308 97.2386 198.1341 C 97.344 198.2375 97.4688 198.2891 97.6129 198.2891 L 110.3871 198.2891 C 110.5311 198.2891 110.656 198.2375 110.7615 198.1341 C 110.8667 198.0308 110.9193 197.9084 110.9193 197.767 L 110.9193 195.6786 C 110.9193 195.5372 110.8667 195.4149 110.7615 195.3116 L 110.7615 195.3116 Z" fill="#a7b7c9"/>
		</g>
		<g id="archive-black-box8">
			<path d="M 161.4225 201.2667 C 161.3173 201.37 161.1925 201.4216 161.0483 201.4216 L 158.9193 201.4216 C 158.7751 201.4216 158.6504 201.3699 158.545 201.2667 C 158.4397 201.1633 158.3871 201.041 158.3871 200.8995 C 158.3871 200.7581 158.4397 200.6357 158.545 200.5324 C 158.6504 200.4291 158.7751 200.3774 158.9193 200.3774 L 161.0485 200.3774 C 161.1925 200.3774 161.3173 200.4291 161.4227 200.5324 C 161.5281 200.6357 161.5807 200.7581 161.5807 200.8995 C 161.5807 201.041 161.5278 201.1633 161.4225 201.2667 L 161.4225 201.2667 ZM 165.8389 198.8112 L 154.129 198.8112 C 153.9849 198.8112 153.8601 198.8629 153.7549 198.9662 C 153.6494 199.0695 153.5968 199.1919 153.5968 199.3333 L 153.5968 207.1646 C 153.5968 207.306 153.6494 207.4284 153.7549 207.5317 C 153.8601 207.635 153.9849 207.6868 154.129 207.6868 L 165.8389 207.6868 C 165.9829 207.6868 166.1075 207.635 166.213 207.5317 C 166.3182 207.4284 166.371 207.306 166.371 207.1646 L 166.371 199.3333 C 166.371 199.1918 166.3185 199.0695 166.213 198.9662 C 166.1077 198.8629 165.9829 198.8112 165.8389 198.8112 L 165.8389 198.8112 Z" fill="#a7b7c9"/>
			<path d="M 166.7454 195.3116 C 166.64 195.2083 166.5153 195.1566 166.3711 195.1566 L 153.5968 195.1566 C 153.4526 195.1566 153.3279 195.2083 153.2225 195.3116 C 153.1172 195.4149 153.0646 195.5372 153.0646 195.6786 L 153.0646 197.767 C 153.0646 197.9084 153.1172 198.0308 153.2225 198.1341 C 153.3279 198.2375 153.4526 198.2891 153.5968 198.2891 L 166.371 198.2891 C 166.515 198.2891 166.6399 198.2375 166.7454 198.1341 C 166.8506 198.0308 166.9032 197.9084 166.9032 197.767 L 166.9032 195.6786 C 166.9032 195.5372 166.8506 195.4149 166.7454 195.3116 L 166.7454 195.3116 Z" fill="#a7b7c9"/>
		</g>
		<g opacity="0.502">
			<path d="M 201 49.1279 C 201 46.7853 201.7834 46 204.1208 46 L 265.8789 46 C 268.2162 46 269 46.7853 269 49.1279 L 269 191.8721 C 269 194.2147 268.2162 195 265.8789 195 L 204.1208 195 C 201.7834 195 201 194.2147 201 191.8721 L 201 49.1279 Z" stroke="#a7b7c9" stroke-width="1" fill="none"/>
		</g>
		<g>
			<path d="M 234 61.5 C 234 60.6202 234.9492 60 236.2954 60 L 258.7046 60 C 260.0508 60 261 60.6202 261 61.5 L 261 61.5 C 261 62.3285 260.0508 63 258.7046 63 L 236.2954 63 C 234.9492 63 234 62.3285 234 61.5 L 234 61.5 Z" fill="#a7b7c9"/>
		</g>
		<g opacity="0.749">
			<path d="M 210 71 C 210 70.2789 210.1132 70 210.4054 70 L 260.5945 70 C 260.8868 70 261 70.2789 261 71 L 261 71 C 261 71.5522 260.8868 72 260.5945 72 L 210.4054 72 C 210.1132 72 210 71.5522 210 71 L 210 71 Z" fill="#c8d2dd"/>
		</g>
		<g opacity="0.749">
			<path d="M 231 77 C 231 76.2791 231.0665 76 231.2384 76 L 260.7615 76 C 260.9335 76 261 76.2791 261 77 L 261 77 C 261 77.5522 260.9335 78 260.7615 78 L 231.2384 78 C 231.0665 78 231 77.5522 231 77 L 231 77 Z" fill="#c8d2dd"/>
		</g>
		<g opacity="0.749">
			<path d="M 219 91 C 219 90.2791 219.0665 90 219.2384 90 L 248.7615 90 C 248.9335 90 249 90.2791 249 91 L 249 91 C 249 91.5522 248.9335 92 248.7615 92 L 219.2384 92 C 219.0665 92 219 91.5522 219 91 L 219 91 Z" fill="#c8d2dd"/>
		</g>
		<g opacity="0.749">
			<path d="M 219 105 C 219 104.2791 219.0665 104 219.2384 104 L 248.7615 104 C 248.9335 104 249 104.2791 249 105 L 249 105 C 249 105.5522 248.9335 106 248.7615 106 L 219.2384 106 C 219.0665 106 219 105.5522 219 105 L 219 105 Z" fill="#c8d2dd"/>
		</g>
		<g opacity="0.749">
			<path d="M 219 118 C 219 117.2791 219.0665 117 219.2384 117 L 248.7615 117 C 248.9335 117 249 117.2791 249 118 L 249 118 C 249 118.5522 248.9335 119 248.7615 119 L 219.2384 119 C 219.0665 119 219 118.5522 219 118 L 219 118 Z" fill="#c8d2dd"/>
		</g>
		<g opacity="0.502">
			<path d="M 201 213.0677 C 201 210.7701 201.7682 210 204.0599 210 L 265.9398 210 C 268.2314 210 269 210.7701 269 213.0677 L 269 223.9321 C 269 226.2297 268.2314 227 265.9398 227 L 204.0599 227 C 201.7682 227 201 226.2297 201 223.9321 L 201 213.0677 Z" stroke="#a7b7c9" stroke-width="1" fill="none"/>
		</g>
		<g>
			<path d="M 205 215.3989 C 205 214.5785 205.7572 214 206.8311 214 L 212.1689 214 C 213.2428 214 214 214.5785 214 215.3989 L 214 221.6011 C 214 222.3737 213.2428 223 212.1689 223 L 206.8311 223 C 205.7572 223 205 222.3737 205 221.6011 L 205 215.3989 Z" fill="#a7b7c9"/>
		</g>
		<g>
			<path d="M 208 217.4663 C 208 217.1929 208.2524 217 208.6104 217 L 210.3896 217 C 210.7476 217 211 217.1929 211 217.4663 L 211 219.5337 C 211 219.7913 210.7476 220 210.3896 220 L 208.6104 220 C 208.2524 220 208 219.7913 208 219.5337 L 208 217.4663 Z" fill="#ffffff"/>
		</g>
		<g opacity="0.749">
			<path d="M 230 219 C 230 218.2791 230.0665 218 230.2384 218 L 259.7615 218 C 259.9335 218 260 218.2791 260 219 L 260 219 C 260 219.5522 259.9335 220 259.7615 220 L 230.2384 220 C 230.0665 220 230 219.5522 230 219 L 230 219 Z" fill="#c8d2dd"/>
		</g>
		<g>
			<path d="M 255 88.8903 C 255 88.3682 255.5048 88 256.2207 88 L 259.7793 88 C 260.4952 88 261 88.3682 261 88.8903 L 261 92.837 C 261 93.3287 260.4952 93.7273 259.7793 93.7273 L 256.2207 93.7273 C 255.5048 93.7273 255 93.3287 255 92.837 L 255 88.8903 Z" fill="#a7b7c9"/>
		</g>
		<g>
			<path d="M 257 90.2058 C 257 90.0319 257.1683 89.9091 257.4069 89.9091 L 258.5931 89.9091 C 258.8317 89.9091 259 90.0319 259 90.2058 L 259 91.5215 C 259 91.6853 258.8317 91.8182 258.5931 91.8182 L 257.4069 91.8182 C 257.1683 91.8182 257 91.6853 257 91.5215 L 257 90.2058 Z" fill="#ffffff"/>
		</g>
		<g>
			<path d="M 255 102.7084 C 255.5247 102.7084 256.2207 102.2009 256.2207 101.8182 L 259.7793 101.8182 C 259.7793 102.4189 260.1764 102.7084 261 102.7084 L 261 106.6553 C 260.1764 106.6553 259.7793 106.9447 259.7793 107.5454 L 256.2207 107.5454 C 256.2207 107.1627 255.5247 106.6553 255 106.6553 L 255 102.7084 Z" fill="#8eb2fa"/>
		</g>
		<g>
			<path d="M 257 104.024 C 257 103.85 257.1683 103.7273 257.4069 103.7273 L 258.5931 103.7273 C 258.8317 103.7273 259 103.85 259 104.024 L 259 105.3396 C 259 105.5035 258.8317 105.6364 258.5931 105.6364 L 257.4069 105.6364 C 257.1683 105.6364 257 105.5035 257 105.3396 L 257 104.024 Z" fill="#ffffff"/>
		</g>
		<g>
			<path d="M 234 148.5 C 234 147.6202 234.9492 147 236.2954 147 L 258.7046 147 C 260.0508 147 261 147.6202 261 148.5 L 261 148.5 C 261 149.3285 260.0508 150 258.7046 150 L 236.2954 150 C 234.9492 150 234 149.3285 234 148.5 L 234 148.5 Z" fill="#a7b7c9"/>
		</g>
		<g opacity="0.749">
			<path d="M 219 163 C 219 162.2791 219.0665 162 219.2384 162 L 248.7615 162 C 248.9335 162 249 162.2791 249 163 L 249 163 C 249 163.5522 248.9335 164 248.7615 164 L 219.2384 164 C 219.0665 164 219 163.5522 219 163 L 219 163 Z" fill="#c8d2dd"/>
		</g>
		<g opacity="0.749">
			<path d="M 219 177 C 219 176.2791 219.0665 176 219.2384 176 L 248.7615 176 C 248.9335 176 249 176.2791 249 177 L 249 177 C 249 177.5522 248.9335 178 248.7615 178 L 219.2384 178 C 219.0665 178 219 177.5522 219 177 L 219 177 Z" fill="#c8d2dd"/>
		</g>
		<g>
			<path d="M 255 160.8903 C 255 160.3682 255.5048 160 256.2207 160 L 259.7793 160 C 260.4952 160 261 160.3682 261 160.8903 L 261 164.837 C 261 165.3287 260.4952 165.7273 259.7793 165.7273 L 256.2207 165.7273 C 255.5048 165.7273 255 165.3287 255 164.837 L 255 160.8903 Z" fill="#a7b7c9"/>
		</g>
		<g>
			<path d="M 257 162.2058 C 257 162.0319 257.1683 161.9091 257.4069 161.9091 L 258.5931 161.9091 C 258.8317 161.9091 259 162.0319 259 162.2058 L 259 163.5215 C 259 163.6853 258.8317 163.8182 258.5931 163.8182 L 257.4069 163.8182 C 257.1683 163.8182 257 163.6853 257 163.5215 L 257 162.2058 Z" fill="#ffffff"/>
		</g>
		<g>
			<path d="M 255 174.7084 C 255.5247 174.7084 256.2207 174.2009 256.2207 173.8182 L 259.7793 173.8182 C 259.7793 174.4189 260.1764 174.7084 261 174.7084 L 261 178.6553 C 260.1764 178.6553 259.7793 178.9447 259.7793 179.5454 L 256.2207 179.5454 C 256.2207 179.1627 255.5247 178.6553 255 178.6553 L 255 174.7084 Z" fill="#8eb2fa"/>
		</g>
		<g>
			<path d="M 257 176.024 C 257 175.85 257.1683 175.7273 257.4069 175.7273 L 258.5931 175.7273 C 258.8317 175.7273 259 175.85 259 176.024 L 259 177.3396 C 259 177.5035 258.8317 177.6364 258.5931 177.6364 L 257.4069 177.6364 C 257.1683 177.6364 257 177.5035 257 177.3396 L 257 176.024 Z" fill="#ffffff"/>
		</g>
		<g>
			<path d="M 255 116.163 C 255 115.6409 255.5048 115.2727 256.2207 115.2727 L 259.7793 115.2727 C 260.4952 115.2727 261 115.6409 261 116.163 L 261 120.1097 C 261 120.6014 260.4952 121 259.7793 121 L 256.2207 121 C 255.5048 121 255 120.6014 255 120.1097 L 255 116.163 Z" fill="#a7b7c9"/>
		</g>
		<g>
			<path d="M 257 117.4785 C 257 117.3046 257.1683 117.1818 257.4069 117.1818 L 258.5931 117.1818 C 258.8317 117.1818 259 117.3046 259 117.4785 L 259 118.7942 C 259 118.9581 258.8317 119.0909 258.5931 119.0909 L 257.4069 119.0909 C 257.1683 119.0909 257 118.9581 257 118.7942 L 257 117.4785 Z" fill="#ffffff"/>
		</g>
		<path id="Line2" d="M 267.5 133.5 L 201.5 133.5 " stroke="#ebeff3" stroke-width="1" fill="none"/>
	</g>
</svg>