<?xml version="1.0" standalone="no"?>
<!-- Generator: Adobe Fireworks 10, Export SVG Extension by Aaron Beall (http://fireworks.abeall.com) . Version: 0.6.1  -->
<!DOCTYPE svg PUBLIC "-//W3C//DTD SVG 1.1//EN" "http://www.w3.org/Graphics/SVG/1.1/DTD/svg11.dtd">
<svg id="Untitled-Page%201" viewBox="0 0 292 257" style="background-color:#ffffff00" version="1.1"
	xmlns="http://www.w3.org/2000/svg" xmlns:xlink="http://www.w3.org/1999/xlink" xml:space="preserve"
	x="0px" y="0px" width="292px" height="257px"
>
	<g id="Layer%201">
		<g id="default">
			<path d="M 1.2753 10.5994 C 1.2753 4.6375 4.8617 1 10.7393 1 L 282.0353 1 C 287.9128 1 291.4996 4.6375 291.4996 10.5994 L 291.4996 246.4006 C 291.4996 252.3627 287.9128 256 282.0353 256 L 10.7393 256 C 4.8617 256 1.2753 252.3627 1.2753 246.4006 L 1.2753 10.5994 L 1.2753 10.5994 Z" stroke="#cacad0" stroke-width="1" fill="#ffffff"/>
			<path id="Ellipse" d="M 24.2931 10 C 24.2931 8.3431 25.6373 7 27.2954 7 C 28.9536 7 30.2978 8.3431 30.2978 10 C 30.2978 11.6569 28.9536 13 27.2954 13 C 25.6373 13 24.2931 11.6569 24.2931 10 L 24.2931 10 Z" fill="#dae0e6"/>
			<path id="Ellipse2" d="M 34.3009 10 C 34.3009 8.3431 35.6451 7 37.3032 7 C 38.9613 7 40.3055 8.3431 40.3055 10 C 40.3055 11.6569 38.9613 13 37.3032 13 C 35.6451 13 34.3009 11.6569 34.3009 10 L 34.3009 10 Z" fill="#dae0e6"/>
			<path id="Ellipse3" d="M 44.3086 10 C 44.3086 8.3431 45.6528 7 47.3109 7 C 48.9691 7 50.3132 8.3431 50.3132 10 C 50.3132 11.6569 48.9691 13 47.3109 13 C 45.6528 13 44.3086 11.6569 44.3086 10 L 44.3086 10 Z" fill="#dae0e6"/>
			<path id="Line" opacity="0.502" d="M 1.5004 19.5 L 291.7247 19.5 " stroke="#b9b9c8" stroke-width="1" fill="none"/>
			<g>
				<path d="M 118.0469 132.1094 C 118.4688 131.5156 118.9844 131.2188 119.5781 131.2188 C 120.2031 131.2188 120.7344 131.5313 121.1406 132.125 C 121.5469 132.7344 121.75 133.7188 121.75 135.0781 C 121.75 136.3281 121.5313 137.25 121.1094 137.8594 C 120.6875 138.4844 120.2031 138.7813 119.6406 138.7813 C 119.2031 138.7813 118.8281 138.6563 118.4844 138.3906 C 118.1406 138.125 117.875 137.7188 117.6875 137.1875 C 117.5 136.6563 117.4219 135.8594 117.4219 134.7813 C 117.4219 133.5938 117.625 132.7031 118.0469 132.1094 L 118.0469 132.1094 L 118.0469 132.1094 ZM 124.3281 124.5313 L 121.7344 124.5313 L 121.7344 130.4688 C 121.3281 129.9219 120.8906 129.5 120.4219 129.2188 C 119.9531 128.9375 119.4375 128.7969 118.8906 128.7969 C 117.7344 128.7969 116.75 129.3281 115.9688 130.3594 C 115.1719 131.4063 114.7813 132.9375 114.7813 134.9688 C 114.7813 137 115.1875 138.5469 116 139.6406 C 116.8125 140.7344 117.7656 141.2656 118.8594 141.2656 C 119.4219 141.2656 119.9688 141.0938 120.5156 140.7656 C 121.0469 140.4375 121.5156 139.9375 121.9219 139.25 L 121.9219 141 L 124.3281 141 L 124.3281 124.5313 L 124.3281 124.5313 L 124.3281 124.5313 Z" fill="#7992ac"/>
				<path d="M 129.2969 134.0156 C 129.2969 133.1406 129.4844 132.4531 129.8594 131.9531 C 130.2344 131.4688 130.6875 131.2188 131.25 131.2188 C 131.75 131.2188 132.2031 131.4531 132.5781 131.9219 C 132.9531 132.3906 133.1406 133.0938 133.1719 134.0156 L 129.2969 134.0156 L 129.2969 134.0156 L 129.2969 134.0156 ZM 131.375 138.9063 C 130.7813 138.9063 130.2969 138.6563 129.8906 138.1406 C 129.4844 137.625 129.2656 136.8906 129.25 135.9531 L 135.7344 135.9531 L 135.75 135.5938 C 135.75 133.2813 135.2813 131.5469 134.375 130.3594 C 133.5781 129.3281 132.4844 128.7969 131.0938 128.7969 C 129.8281 128.7969 128.7969 129.3125 128.0156 130.3125 C 127.0781 131.5156 126.6094 133.1094 126.6094 135.1094 C 126.6094 137.1406 127.0625 138.7031 128 139.8281 C 128.7813 140.7969 129.8906 141.2656 131.3438 141.2656 C 132.375 141.2656 133.2656 140.9844 133.9844 140.4063 C 134.7031 139.8281 135.25 138.9375 135.6094 137.7344 L 133.0313 137.2031 C 132.75 138.3438 132.1875 138.9063 131.375 138.9063 L 131.375 138.9063 L 131.375 138.9063 Z" fill="#7992ac"/>
				<path d="M 137.2188 131.5625 L 138.6563 131.5625 L 138.6563 141 L 141.25 141 L 141.25 131.5625 L 143.1719 131.5625 L 143.1719 129.0781 L 141.25 129.0781 L 141.25 128.2344 C 141.25 127.625 141.3281 127.2188 141.4844 127 C 141.6406 126.7969 141.9219 126.6875 142.2969 126.6875 C 142.6719 126.6875 143.0625 126.75 143.4844 126.8594 L 143.8281 124.6563 C 143.1094 124.3906 142.3906 124.25 141.6719 124.25 C 140.9844 124.25 140.4219 124.3906 139.9688 124.6719 C 139.5 124.9531 139.1719 125.3438 138.9688 125.8281 C 138.75 126.3125 138.6563 127.0938 138.6563 128.1719 L 138.6563 129.0781 L 137.2188 129.0781 L 137.2188 131.5625 L 137.2188 131.5625 L 137.2188 131.5625 Z" fill="#7992ac"/>
				<path d="M 150.75 135.9063 C 150.75 136.8125 150.6719 137.4375 150.5313 137.7813 C 150.3906 138.125 150.1406 138.4219 149.7813 138.6719 C 149.4219 138.9219 149.0625 139.0469 148.7031 139.0469 C 148.2969 139.0469 147.9531 138.8906 147.6719 138.5781 C 147.3906 138.2656 147.2656 137.8906 147.2656 137.4219 C 147.2656 137.0313 147.3906 136.7031 147.6406 136.4375 C 147.8906 136.1875 148.4063 135.9688 149.2188 135.75 C 149.9063 135.5625 150.4063 135.4063 150.75 135.2656 L 150.75 135.9063 L 150.75 135.9063 L 150.75 135.9063 ZM 147.9219 131.5313 C 148.1875 131.3281 148.5625 131.2188 149.0313 131.2188 C 149.4844 131.2188 149.8438 131.2969 150.0938 131.4219 C 150.3438 131.5469 150.5156 131.7188 150.6094 131.9219 C 150.7031 132.1406 150.75 132.5625 150.75 133.2188 C 150.2813 133.4688 149.4375 133.7188 148.25 133.9844 C 147.25 134.2344 146.5313 134.5 146.0938 134.7969 C 145.6406 135.0938 145.2969 135.5 145.0469 136 C 144.7969 136.5 144.6719 137.0938 144.6719 137.75 C 144.6719 138.8125 144.9688 139.6719 145.5781 140.3125 C 146.1875 140.9531 146.9688 141.2656 147.9219 141.2656 C 148.4844 141.2656 149.0156 141.125 149.5313 140.875 C 150.0313 140.625 150.5156 140.2344 150.9531 139.7031 L 151.2813 141 L 153.8438 141 C 153.625 140.4375 153.4688 139.8906 153.3906 139.3906 C 153.2969 138.8906 153.2656 138.1094 153.2656 137.0781 L 153.2813 133.3906 C 153.2813 132.0156 153.1563 131.0469 152.9063 130.5156 C 152.6563 129.9844 152.25 129.5781 151.6719 129.2656 C 151.0938 128.9531 150.2656 128.7969 149.1719 128.7969 C 147.9375 128.7969 147 129.0625 146.3438 129.5938 C 145.6875 130.125 145.2188 131 144.9375 132.1875 L 147.2969 132.7188 C 147.4531 132.1406 147.6563 131.75 147.9219 131.5313 L 147.9219 131.5313 L 147.9219 131.5313 Z" fill="#7992ac"/>
				<path d="M 165.1875 141 L 165.1875 129.0781 L 162.6094 129.0781 L 162.6094 134.1094 C 162.6094 135.7344 162.5469 136.7813 162.4219 137.25 C 162.2969 137.7188 162.0625 138.1094 161.7031 138.4063 C 161.3281 138.7188 160.9375 138.8594 160.5 138.8594 C 160.125 138.8594 159.7969 138.75 159.5313 138.5156 C 159.25 138.2969 159.0781 137.9688 159 137.5469 C 158.9219 137.125 158.8906 136.125 158.8906 134.5469 L 158.8906 129.0781 L 156.2969 129.0781 L 156.2969 136.625 C 156.2969 137.8125 156.4219 138.7031 156.6719 139.3281 C 156.9219 139.9531 157.2969 140.4375 157.8125 140.7656 C 158.3125 141.0938 158.8906 141.2656 159.5313 141.2656 C 160.1563 141.2656 160.7656 141.0781 161.3594 140.7344 C 161.9531 140.375 162.4219 139.875 162.7813 139.2188 L 162.7813 141 L 165.1875 141 L 165.1875 141 L 165.1875 141 Z" fill="#7992ac"/>
				<path d="M 169.9531 141 L 169.9531 124.5313 L 167.3594 124.5313 L 167.3594 141 L 169.9531 141 L 169.9531 141 L 169.9531 141 Z" fill="#7992ac"/>
				<path d="M 176.0625 129.0781 L 176.0625 124.8594 L 173.4688 126.7031 L 173.4688 129.0781 L 172.2813 129.0781 L 172.2813 131.5938 L 173.4688 131.5938 L 173.4688 136.7813 C 173.4688 138.125 173.5156 139 173.625 139.4375 C 173.75 140.0313 174.0156 140.4844 174.4219 140.7969 C 174.8125 141.1094 175.3438 141.2656 176.0156 141.2656 C 176.7656 141.2656 177.4375 141.1094 178.0469 140.7969 L 177.8125 138.3438 C 177.3594 138.5625 177.0156 138.6563 176.7813 138.6563 C 176.4531 138.6563 176.2344 138.5156 176.1406 138.2031 C 176.0781 138.0469 176.0625 137.4375 176.0625 136.3906 L 176.0625 131.5938 L 177.8281 131.5938 L 177.8281 129.0781 L 176.0625 129.0781 L 176.0625 129.0781 L 176.0625 129.0781 Z" fill="#7992ac"/>
			</g>
			<g>
				<path d="M 134.3125 161.2188 C 133.7656 161.4531 133.2969 161.7813 132.8906 162.1875 C 132.4844 162.5938 132.1563 163.0781 131.9219 163.6094 C 131.6875 164.1406 131.5781 164.7188 131.5781 165.3281 C 131.5781 165.9531 131.6875 166.5313 131.9219 167.0625 C 132.1563 167.5938 132.4844 168.0625 132.8906 168.4688 C 133.2969 168.875 133.7656 169.1875 134.3125 169.4375 C 134.8438 169.6563 135.4219 169.7813 136.0313 169.7813 C 136.6406 169.7813 137.2188 169.6563 137.7656 169.4375 C 138.2969 169.1875 138.7813 168.875 139.1875 168.4688 C 139.5938 168.0625 139.9063 167.5938 140.1406 167.0625 C 140.3594 166.5313 140.4844 165.9531 140.4844 165.3281 C 140.4844 164.7188 140.3594 164.1406 140.1406 163.6094 C 139.9063 163.0781 139.5938 162.5938 139.1875 162.1875 C 138.7813 161.7813 138.2969 161.4531 137.7656 161.2188 C 137.2188 161 136.6406 160.875 136.0313 160.875 C 135.4219 160.875 134.8438 161 134.3125 161.2188 L 134.3125 161.2188 L 134.3125 161.2188 Z" fill="#7992ac"/>
				<path d="M 145.3125 161.2188 C 144.7656 161.4531 144.2969 161.7813 143.8906 162.1875 C 143.4844 162.5938 143.1563 163.0781 142.9219 163.6094 C 142.6875 164.1406 142.5781 164.7188 142.5781 165.3281 C 142.5781 165.9531 142.6875 166.5313 142.9219 167.0625 C 143.1563 167.5938 143.4844 168.0625 143.8906 168.4688 C 144.2969 168.875 144.7656 169.1875 145.3125 169.4375 C 145.8438 169.6563 146.4219 169.7813 147.0313 169.7813 C 147.6406 169.7813 148.2188 169.6563 148.7656 169.4375 C 149.2969 169.1875 149.7813 168.875 150.1875 168.4688 C 150.5938 168.0625 150.9063 167.5938 151.1406 167.0625 C 151.3594 166.5313 151.4844 165.9531 151.4844 165.3281 C 151.4844 164.7188 151.3594 164.1406 151.1406 163.6094 C 150.9063 163.0781 150.5938 162.5938 150.1875 162.1875 C 149.7813 161.7813 149.2969 161.4531 148.7656 161.2188 C 148.2188 161 147.6406 160.875 147.0313 160.875 C 146.4219 160.875 145.8438 161 145.3125 161.2188 L 145.3125 161.2188 L 145.3125 161.2188 Z" fill="#7992ac"/>
				<path d="M 156.3125 161.2188 C 155.7656 161.4531 155.2969 161.7813 154.8906 162.1875 C 154.4844 162.5938 154.1563 163.0781 153.9219 163.6094 C 153.6875 164.1406 153.5781 164.7188 153.5781 165.3281 C 153.5781 165.9531 153.6875 166.5313 153.9219 167.0625 C 154.1563 167.5938 154.4844 168.0625 154.8906 168.4688 C 155.2969 168.875 155.7656 169.1875 156.3125 169.4375 C 156.8438 169.6563 157.4219 169.7813 158.0313 169.7813 C 158.6406 169.7813 159.2188 169.6563 159.7656 169.4375 C 160.2969 169.1875 160.7813 168.875 161.1875 168.4688 C 161.5938 168.0625 161.9063 167.5938 162.1406 167.0625 C 162.3594 166.5313 162.4844 165.9531 162.4844 165.3281 C 162.4844 164.7188 162.3594 164.1406 162.1406 163.6094 C 161.9063 163.0781 161.5938 162.5938 161.1875 162.1875 C 160.7813 161.7813 160.2969 161.4531 159.7656 161.2188 C 159.2188 161 158.6406 160.875 158.0313 160.875 C 157.4219 160.875 156.8438 161 156.3125 161.2188 L 156.3125 161.2188 L 156.3125 161.2188 Z" fill="#7992ac"/>
			</g>
		</g>
	</g>
</svg>