<?xml version="1.0" standalone="no"?>
<!-- Generator: Adobe Fireworks 10, Export SVG Extension by Aaron Beall (http://fireworks.abeall.com) . Version: 0.6.1  -->
<!DOCTYPE svg PUBLIC "-//W3C//DTD SVG 1.1//EN" "http://www.w3.org/Graphics/SVG/1.1/DTD/svg11.dtd">
<svg id="Untitled-Page%201" viewBox="0 0 292 257" style="background-color:#ffffff00" version="1.1"
	xmlns="http://www.w3.org/2000/svg" xmlns:xlink="http://www.w3.org/1999/xlink" xml:space="preserve"
	x="0px" y="0px" width="292px" height="257px"
>
	<g id="Layer%201">
		<g>
			<path d="M 1.2754 10.5993 C 1.2754 4.6375 4.8617 1 10.7393 1 L 282.0353 1 C 287.9128 1 291.4996 4.6375 291.4996 10.5993 L 291.4996 246.4007 C 291.4996 252.3627 287.9128 256 282.0353 256 L 10.7393 256 C 4.8617 256 1.2754 252.3627 1.2754 246.4007 L 1.2754 10.5993 Z" stroke="#cacad0" stroke-width="1" fill="#ffffff"/>
		</g>
		<path id="Ellipse" d="M 24.2931 10 C 24.2931 8.3431 25.6373 7 27.2954 7 C 28.9536 7 30.2977 8.3431 30.2977 10 C 30.2977 11.6569 28.9536 13 27.2954 13 C 25.6373 13 24.2931 11.6569 24.2931 10 Z" fill="#dae0e6"/>
		<path id="Ellipse2" d="M 34.3009 10 C 34.3009 8.3431 35.645 7 37.3032 7 C 38.9613 7 40.3055 8.3431 40.3055 10 C 40.3055 11.6569 38.9613 13 37.3032 13 C 35.645 13 34.3009 11.6569 34.3009 10 Z" fill="#dae0e6"/>
		<path id="Ellipse3" d="M 44.3086 10 C 44.3086 8.3431 45.6528 7 47.3109 7 C 48.969 7 50.3132 8.3431 50.3132 10 C 50.3132 11.6569 48.969 13 47.3109 13 C 45.6528 13 44.3086 11.6569 44.3086 10 Z" fill="#dae0e6"/>
		<path id="Line" opacity="0.502" d="M 1.5004 19.5 L 291.7246 19.5 " stroke="#b9b9c8" stroke-width="1" fill="none"/>
		<g>
			<path d="M 175.4189 39 C 175.4189 36.2385 178.4558 34 182.2017 34 L 262.416 34 C 266.162 34 269.1987 36.2385 269.1987 39 L 269.1987 39 C 269.1987 41.7615 266.162 44 262.416 44 L 182.2017 44 C 178.4558 44 175.4189 41.7615 175.4189 39 L 175.4189 39 Z" fill="#8eb2fa"/>
		</g>
		<g>
			<path d="M 213 143.5 C 213 142.0338 214.582 141 216.8257 141 L 254.1743 141 C 256.418 141 258 142.0338 258 143.5 L 258 143.5 C 258 144.8807 256.418 146 254.1743 146 L 216.8257 146 C 214.582 146 213 144.8807 213 143.5 L 213 143.5 Z" fill="#a7b7c9"/>
		</g>
		<g>
			<path d="M 220 151.5 C 220 150.4184 220.5432 150 221.9474 150 L 248.0526 150 C 249.4568 150 250 150.4184 250 151.5 L 250 151.5 C 250 152.3285 249.4568 153 248.0526 153 L 221.9474 153 C 220.5432 153 220 152.3284 220 151.5 L 220 151.5 Z" fill="#e8ebf0"/>
		</g>
		<g>
			<path d="M 33 143.5 C 33 142.0338 34.582 141 36.8257 141 L 74.1743 141 C 76.418 141 78 142.0338 78 143.5 L 78 143.5 C 78 144.8807 76.418 146 74.1743 146 L 36.8257 146 C 34.582 146 33 144.8807 33 143.5 L 33 143.5 Z" fill="#a7b7c9"/>
		</g>
		<g>
			<path d="M 40 151.5 C 40 150.4184 40.5432 150 41.9474 150 L 68.0526 150 C 69.4568 150 70 150.4184 70 151.5 L 70 151.5 C 70 152.3285 69.4568 153 68.0526 153 L 41.9474 153 C 40.5432 153 40 152.3284 40 151.5 L 40 151.5 Z" fill="#e8ebf0"/>
		</g>
		<g opacity="0.251">
			<path d="M 110 93.2915 C 110 89.3284 111.3232 88 115.2706 88 L 174.7288 88 C 178.6763 88 180 89.3284 180 93.2915 L 180 124.7084 C 180 128.6717 178.6763 130 174.7288 130 L 115.2706 130 C 111.3232 130 110 128.6717 110 124.7084 L 110 93.2915 Z" fill="#a7b7c9"/>
		</g>
		<g>
			<path d="M 123 143.5 C 123 142.0338 124.582 141 126.8257 141 L 164.1743 141 C 166.418 141 168 142.0338 168 143.5 L 168 143.5 C 168 144.8807 166.418 146 164.1743 146 L 126.8257 146 C 124.582 146 123 144.8807 123 143.5 L 123 143.5 Z" fill="#a7b7c9"/>
		</g>
		<g>
			<path d="M 130 151.5 C 130 150.4184 130.5432 150 131.9474 150 L 158.0526 150 C 159.4568 150 160 150.4184 160 151.5 L 160 151.5 C 160 152.3285 159.4568 153 158.0526 153 L 131.9474 153 C 130.5432 153 130 152.3284 130 151.5 L 130 151.5 Z" fill="#e8ebf0"/>
		</g>
		<g>
			<path d="M 213 224.5 C 213 223.0338 214.582 222 216.8257 222 L 254.1743 222 C 256.418 222 258 223.0338 258 224.5 L 258 224.5 C 258 225.8807 256.418 227 254.1743 227 L 216.8257 227 C 214.582 227 213 225.8807 213 224.5 L 213 224.5 Z" fill="#a7b7c9"/>
		</g>
		<g>
			<path d="M 220 232.5 C 220 231.4184 220.5432 231 221.9474 231 L 248.0526 231 C 249.4568 231 250 231.4184 250 232.5 L 250 232.5 C 250 233.3285 249.4568 234 248.0526 234 L 221.9474 234 C 220.5432 234 220 233.3284 220 232.5 L 220 232.5 Z" fill="#e8ebf0"/>
		</g>
		<g>
			<path d="M 33 224.5 C 33 223.0338 34.582 222 36.8257 222 L 74.1743 222 C 76.418 222 78 223.0338 78 224.5 L 78 224.5 C 78 225.8807 76.418 227 74.1743 227 L 36.8257 227 C 34.582 227 33 225.8807 33 224.5 L 33 224.5 Z" fill="#a7b7c9"/>
		</g>
		<g>
			<path d="M 40 232.5 C 40 231.4184 40.5432 231 41.9474 231 L 68.0526 231 C 69.4568 231 70 231.4184 70 232.5 L 70 232.5 C 70 233.3285 69.4568 234 68.0526 234 L 41.9474 234 C 40.5432 234 40 233.3284 40 232.5 L 40 232.5 Z" fill="#e8ebf0"/>
		</g>
		<g opacity="0.251">
			<path d="M 110 174.2915 C 110 170.3284 111.3232 169 115.2706 169 L 174.7288 169 C 178.6763 169 180 170.3284 180 174.2915 L 180 205.7084 C 180 209.6717 178.6763 211 174.7288 211 L 115.2706 211 C 111.3232 211 110 209.6717 110 205.7084 L 110 174.2915 Z" fill="#a7b7c9"/>
		</g>
		<g opacity="0.251">
			<path d="M 200 174.2915 C 200 170.3284 201.3232 169 205.2706 169 L 264.7288 169 C 268.6763 169 270 170.3284 270 174.2915 L 270 205.7084 C 270 209.6717 268.6763 211 264.7288 211 L 205.2706 211 C 201.3232 211 200 209.6717 200 205.7084 L 200 174.2915 Z" fill="#a7b7c9"/>
		</g>
		<g opacity="0.251">
			<path d="M 22 174.2915 C 22 170.3284 23.3232 169 27.2706 169 L 86.7288 169 C 90.6763 169 92 170.3284 92 174.2915 L 92 205.7084 C 92 209.6717 90.6763 211 86.7288 211 L 27.2706 211 C 23.3232 211 22 209.6717 22 205.7084 L 22 174.2915 Z" fill="#a7b7c9"/>
		</g>
		<g opacity="0.251">
			<path d="M 200 93.2915 C 200 89.3284 201.3232 88 205.2706 88 L 264.7288 88 C 268.6763 88 270 89.3284 270 93.2915 L 270 124.7084 C 270 128.6717 268.6763 130 264.7288 130 L 205.2706 130 C 201.3232 130 200 128.6717 200 124.7084 L 200 93.2915 Z" fill="#a7b7c9"/>
		</g>
		<g opacity="0.251">
			<path d="M 22 93.2915 C 22 89.3284 23.3232 88 27.2706 88 L 86.7288 88 C 90.6763 88 92 89.3284 92 93.2915 L 92 124.7084 C 92 128.6717 90.6763 130 86.7288 130 L 27.2706 130 C 23.3232 130 22 128.6717 22 124.7084 L 22 93.2915 Z" fill="#a7b7c9"/>
		</g>
		<g>
			<path d="M 123 224.5 C 123 223.0338 124.582 222 126.8257 222 L 164.1743 222 C 166.418 222 168 223.0338 168 224.5 L 168 224.5 C 168 225.8807 166.418 227 164.1743 227 L 126.8257 227 C 124.582 227 123 225.8807 123 224.5 L 123 224.5 Z" fill="#a7b7c9"/>
		</g>
		<g>
			<path d="M 130 232.5 C 130 231.4184 130.5432 231 131.9474 231 L 158.0526 231 C 159.4568 231 160 231.4184 160 232.5 L 160 232.5 C 160 233.3285 159.4568 234 158.0526 234 L 131.9474 234 C 130.5432 234 130 233.3284 130 232.5 L 130 232.5 Z" fill="#e8ebf0"/>
		</g>
		<g id="archive-black-box">
			<path d="M 59.2871 107.7526 C 59.1198 107.9174 58.9214 107.9999 58.6921 107.9999 L 55.3076 107.9999 C 55.0785 107.9999 54.8801 107.9174 54.7126 107.7526 C 54.5452 107.5876 54.4614 107.3923 54.4614 107.1665 C 54.4614 106.9409 54.5452 106.7455 54.7126 106.5806 C 54.8801 106.4156 55.0784 106.3331 55.3076 106.3331 L 58.6924 106.3331 C 58.9214 106.3331 59.1198 106.4156 59.2874 106.5806 C 59.4548 106.7455 59.5385 106.9408 59.5385 107.1665 C 59.5385 107.3923 59.4546 107.5876 59.2871 107.7526 L 59.2871 107.7526 ZM 66.3079 103.8333 L 47.6924 103.8333 C 47.4631 103.8333 47.2648 103.9157 47.0974 104.0807 C 46.9299 104.2455 46.8462 104.4409 46.8462 104.6666 L 46.8462 117.1666 C 46.8462 117.3922 46.9299 117.5876 47.0974 117.7524 C 47.2648 117.9174 47.4631 118 47.6924 118 L 66.3079 118 C 66.537 118 66.7351 117.9174 66.9027 117.7524 C 67.0701 117.5876 67.1538 117.3922 67.1538 117.1666 L 67.1538 104.6666 C 67.1538 104.4407 67.0704 104.2456 66.9027 104.0807 C 66.7354 103.9157 66.537 103.8333 66.3079 103.8333 L 66.3079 103.8333 Z" fill="#a7b7c9"/>
			<path d="M 67.749 98.2474 C 67.5815 98.0824 67.3833 98 67.1541 98 L 46.8462 98 C 46.6169 98 46.4187 98.0824 46.2512 98.2474 C 46.0837 98.4122 46 98.6076 46 98.8333 L 46 102.1666 C 46 102.3922 46.0837 102.5875 46.2512 102.7525 C 46.4187 102.9174 46.6169 102.9999 46.8462 102.9999 L 67.1538 102.9999 C 67.3828 102.9999 67.5813 102.9174 67.749 102.7525 C 67.9163 102.5875 68 102.3923 68 102.1666 L 68 98.8333 C 68 98.6074 67.9163 98.4122 67.749 98.2474 L 67.749 98.2474 Z" fill="#a7b7c9"/>
		</g>
		<g id="archive-black-box2">
			<path d="M 146.2871 107.7526 C 146.1198 107.9174 145.9214 107.9999 145.6921 107.9999 L 142.3076 107.9999 C 142.0785 107.9999 141.8801 107.9174 141.7126 107.7526 C 141.5452 107.5876 141.4614 107.3923 141.4614 107.1665 C 141.4614 106.9409 141.5452 106.7455 141.7126 106.5806 C 141.8801 106.4156 142.0784 106.3331 142.3076 106.3331 L 145.6924 106.3331 C 145.9214 106.3331 146.1198 106.4156 146.2874 106.5806 C 146.4548 106.7455 146.5385 106.9408 146.5385 107.1665 C 146.5385 107.3923 146.4546 107.5876 146.2871 107.7526 L 146.2871 107.7526 ZM 153.3079 103.8333 L 134.6924 103.8333 C 134.4631 103.8333 134.2648 103.9157 134.0974 104.0807 C 133.9299 104.2455 133.8462 104.4409 133.8462 104.6666 L 133.8462 117.1666 C 133.8462 117.3922 133.9299 117.5876 134.0974 117.7524 C 134.2648 117.9174 134.4631 118 134.6924 118 L 153.3079 118 C 153.537 118 153.7351 117.9174 153.9027 117.7524 C 154.0701 117.5876 154.1538 117.3922 154.1538 117.1666 L 154.1538 104.6666 C 154.1538 104.4407 154.0704 104.2456 153.9027 104.0807 C 153.7354 103.9157 153.537 103.8333 153.3079 103.8333 L 153.3079 103.8333 Z" fill="#a7b7c9"/>
			<path d="M 154.749 98.2474 C 154.5815 98.0824 154.3833 98 154.1541 98 L 133.8462 98 C 133.6169 98 133.4187 98.0824 133.2512 98.2474 C 133.0837 98.4122 133 98.6076 133 98.8333 L 133 102.1666 C 133 102.3922 133.0837 102.5875 133.2512 102.7525 C 133.4187 102.9174 133.6169 102.9999 133.8462 102.9999 L 154.1538 102.9999 C 154.3828 102.9999 154.5813 102.9174 154.749 102.7525 C 154.9163 102.5875 155 102.3923 155 102.1666 L 155 98.8333 C 155 98.6074 154.9163 98.4122 154.749 98.2474 L 154.749 98.2474 Z" fill="#a7b7c9"/>
		</g>
		<g id="archive-black-box3">
			<path d="M 237.2871 107.7526 C 237.1198 107.9174 236.9214 107.9999 236.6921 107.9999 L 233.3076 107.9999 C 233.0785 107.9999 232.8801 107.9174 232.7126 107.7526 C 232.5452 107.5876 232.4614 107.3923 232.4614 107.1665 C 232.4614 106.9409 232.5452 106.7455 232.7126 106.5806 C 232.8801 106.4156 233.0784 106.3331 233.3076 106.3331 L 236.6924 106.3331 C 236.9214 106.3331 237.1198 106.4156 237.2874 106.5806 C 237.4548 106.7455 237.5385 106.9408 237.5385 107.1665 C 237.5385 107.3923 237.4546 107.5876 237.2871 107.7526 L 237.2871 107.7526 ZM 244.3079 103.8333 L 225.6924 103.8333 C 225.4631 103.8333 225.2648 103.9157 225.0974 104.0807 C 224.9299 104.2455 224.8462 104.4409 224.8462 104.6666 L 224.8462 117.1666 C 224.8462 117.3922 224.9299 117.5876 225.0974 117.7524 C 225.2648 117.9174 225.4631 118 225.6924 118 L 244.3079 118 C 244.537 118 244.7351 117.9174 244.9027 117.7524 C 245.0701 117.5876 245.1538 117.3922 245.1538 117.1666 L 245.1538 104.6666 C 245.1538 104.4407 245.0704 104.2456 244.9027 104.0807 C 244.7354 103.9157 244.537 103.8333 244.3079 103.8333 L 244.3079 103.8333 Z" fill="#a7b7c9"/>
			<path d="M 245.749 98.2474 C 245.5815 98.0824 245.3833 98 245.1541 98 L 224.8462 98 C 224.6169 98 224.4187 98.0824 224.2512 98.2474 C 224.0837 98.4122 224 98.6076 224 98.8333 L 224 102.1666 C 224 102.3922 224.0837 102.5875 224.2512 102.7525 C 224.4187 102.9174 224.6169 102.9999 224.8462 102.9999 L 245.1538 102.9999 C 245.3828 102.9999 245.5813 102.9174 245.749 102.7525 C 245.9163 102.5875 246 102.3923 246 102.1666 L 246 98.8333 C 246 98.6074 245.9163 98.4122 245.749 98.2474 L 245.749 98.2474 Z" fill="#a7b7c9"/>
		</g>
		<g id="archive-black-box4">
			<path d="M 59.2871 189.7526 C 59.1198 189.9175 58.9214 189.9999 58.6921 189.9999 L 55.3076 189.9999 C 55.0785 189.9999 54.8801 189.9174 54.7126 189.7526 C 54.5452 189.5876 54.4614 189.3923 54.4614 189.1665 C 54.4614 188.9409 54.5452 188.7455 54.7126 188.5806 C 54.8801 188.4156 55.0784 188.3331 55.3076 188.3331 L 58.6924 188.3331 C 58.9214 188.3331 59.1198 188.4156 59.2874 188.5806 C 59.4548 188.7455 59.5385 188.9408 59.5385 189.1665 C 59.5385 189.3923 59.4546 189.5876 59.2871 189.7526 L 59.2871 189.7526 ZM 66.3079 185.8333 L 47.6924 185.8333 C 47.4631 185.8333 47.2648 185.9157 47.0974 186.0807 C 46.9299 186.2455 46.8462 186.4409 46.8462 186.6666 L 46.8462 199.1666 C 46.8462 199.3922 46.9299 199.5876 47.0974 199.7524 C 47.2648 199.9174 47.4631 200 47.6924 200 L 66.3079 200 C 66.537 200 66.7351 199.9174 66.9027 199.7524 C 67.0701 199.5876 67.1538 199.3922 67.1538 199.1666 L 67.1538 186.6666 C 67.1538 186.4407 67.0704 186.2456 66.9027 186.0807 C 66.7354 185.9157 66.537 185.8333 66.3079 185.8333 L 66.3079 185.8333 Z" fill="#a7b7c9"/>
			<path d="M 67.749 180.2474 C 67.5815 180.0824 67.3833 180 67.1541 180 L 46.8462 180 C 46.6169 180 46.4187 180.0824 46.2512 180.2474 C 46.0837 180.4122 46 180.6075 46 180.8333 L 46 184.1666 C 46 184.3922 46.0837 184.5875 46.2512 184.7525 C 46.4187 184.9175 46.6169 184.9999 46.8462 184.9999 L 67.1538 184.9999 C 67.3828 184.9999 67.5813 184.9175 67.749 184.7525 C 67.9163 184.5875 68 184.3923 68 184.1666 L 68 180.8333 C 68 180.6074 67.9163 180.4122 67.749 180.2474 L 67.749 180.2474 Z" fill="#a7b7c9"/>
		</g>
		<g id="archive-black-box5">
			<path d="M 146.2871 189.7526 C 146.1198 189.9175 145.9214 189.9999 145.6921 189.9999 L 142.3076 189.9999 C 142.0785 189.9999 141.8801 189.9174 141.7126 189.7526 C 141.5452 189.5876 141.4614 189.3923 141.4614 189.1665 C 141.4614 188.9409 141.5452 188.7455 141.7126 188.5806 C 141.8801 188.4156 142.0784 188.3331 142.3076 188.3331 L 145.6924 188.3331 C 145.9214 188.3331 146.1198 188.4156 146.2874 188.5806 C 146.4548 188.7455 146.5385 188.9408 146.5385 189.1665 C 146.5385 189.3923 146.4546 189.5876 146.2871 189.7526 L 146.2871 189.7526 ZM 153.3079 185.8333 L 134.6924 185.8333 C 134.4631 185.8333 134.2648 185.9157 134.0974 186.0807 C 133.9299 186.2455 133.8462 186.4409 133.8462 186.6666 L 133.8462 199.1666 C 133.8462 199.3922 133.9299 199.5876 134.0974 199.7524 C 134.2648 199.9174 134.4631 200 134.6924 200 L 153.3079 200 C 153.537 200 153.7351 199.9174 153.9027 199.7524 C 154.0701 199.5876 154.1538 199.3922 154.1538 199.1666 L 154.1538 186.6666 C 154.1538 186.4407 154.0704 186.2456 153.9027 186.0807 C 153.7354 185.9157 153.537 185.8333 153.3079 185.8333 L 153.3079 185.8333 Z" fill="#a7b7c9"/>
			<path d="M 154.749 180.2474 C 154.5815 180.0824 154.3833 180 154.1541 180 L 133.8462 180 C 133.6169 180 133.4187 180.0824 133.2512 180.2474 C 133.0837 180.4122 133 180.6075 133 180.8333 L 133 184.1666 C 133 184.3922 133.0837 184.5875 133.2512 184.7525 C 133.4187 184.9175 133.6169 184.9999 133.8462 184.9999 L 154.1538 184.9999 C 154.3828 184.9999 154.5813 184.9175 154.749 184.7525 C 154.9163 184.5875 155 184.3923 155 184.1666 L 155 180.8333 C 155 180.6074 154.9163 180.4122 154.749 180.2474 L 154.749 180.2474 Z" fill="#a7b7c9"/>
		</g>
		<g id="archive-black-box6">
			<path d="M 237.2871 189.7526 C 237.1198 189.9175 236.9214 189.9999 236.6921 189.9999 L 233.3076 189.9999 C 233.0785 189.9999 232.8801 189.9174 232.7126 189.7526 C 232.5452 189.5876 232.4614 189.3923 232.4614 189.1665 C 232.4614 188.9409 232.5452 188.7455 232.7126 188.5806 C 232.8801 188.4156 233.0784 188.3331 233.3076 188.3331 L 236.6924 188.3331 C 236.9214 188.3331 237.1198 188.4156 237.2874 188.5806 C 237.4548 188.7455 237.5385 188.9408 237.5385 189.1665 C 237.5385 189.3923 237.4546 189.5876 237.2871 189.7526 L 237.2871 189.7526 ZM 244.3079 185.8333 L 225.6924 185.8333 C 225.4631 185.8333 225.2648 185.9157 225.0974 186.0807 C 224.9299 186.2455 224.8462 186.4409 224.8462 186.6666 L 224.8462 199.1666 C 224.8462 199.3922 224.9299 199.5876 225.0974 199.7524 C 225.2648 199.9174 225.4631 200 225.6924 200 L 244.3079 200 C 244.537 200 244.7351 199.9174 244.9027 199.7524 C 245.0701 199.5876 245.1538 199.3922 245.1538 199.1666 L 245.1538 186.6666 C 245.1538 186.4407 245.0704 186.2456 244.9027 186.0807 C 244.7354 185.9157 244.537 185.8333 244.3079 185.8333 L 244.3079 185.8333 Z" fill="#a7b7c9"/>
			<path d="M 245.749 180.2474 C 245.5815 180.0824 245.3833 180 245.1541 180 L 224.8462 180 C 224.6169 180 224.4187 180.0824 224.2512 180.2474 C 224.0837 180.4122 224 180.6075 224 180.8333 L 224 184.1666 C 224 184.3922 224.0837 184.5875 224.2512 184.7525 C 224.4187 184.9175 224.6169 184.9999 224.8462 184.9999 L 245.1538 184.9999 C 245.3828 184.9999 245.5813 184.9175 245.749 184.7525 C 245.9163 184.5875 246 184.3923 246 184.1666 L 246 180.8333 C 246 180.6074 245.9163 180.4122 245.749 180.2474 L 245.749 180.2474 Z" fill="#a7b7c9"/>
		</g>
		<g opacity="0.502">
			<path d="M 200 58.0677 C 200 55.7701 200.7682 55 203.0599 55 L 264.9398 55 C 267.2314 55 268 55.7701 268 58.0677 L 268 68.9322 C 268 71.2297 267.2314 72 264.9398 72 L 203.0599 72 C 200.7682 72 200 71.2297 200 68.9322 L 200 58.0677 Z" stroke="#a7b7c9" stroke-width="1" fill="none"/>
		</g>
		<g>
			<path d="M 204 60.399 C 204 59.5785 204.7572 59 205.8311 59 L 211.1689 59 C 212.2428 59 213 59.5785 213 60.399 L 213 66.601 C 213 67.3737 212.2428 68 211.1689 68 L 205.8311 68 C 204.7572 68 204 67.3737 204 66.601 L 204 60.399 Z" fill="#a7b7c9"/>
		</g>
		<g>
			<path d="M 207 62.4663 C 207 62.1929 207.2524 62 207.6104 62 L 209.3896 62 C 209.7476 62 210 62.1929 210 62.4663 L 210 64.5337 C 210 64.7913 209.7476 65 209.3896 65 L 207.6104 65 C 207.2524 65 207 64.7913 207 64.5337 L 207 62.4663 Z" fill="#ffffff"/>
		</g>
		<g opacity="0.749">
			<path d="M 229 64 C 229 63.279 229.0665 63 229.2384 63 L 258.7615 63 C 258.9335 63 259 63.279 259 64 L 259 64 C 259 64.5522 258.9335 65 258.7615 65 L 229.2384 65 C 229.0665 65 229 64.5522 229 64 L 229 64 Z" fill="#c8d2dd"/>
		</g>
		<g>
			<path d="M 24 57.6191 C 24 55.9336 25.101 55 27.0879 55 L 63.9122 55 C 65.8992 55 67 55.9336 67 57.6191 L 67 69.3809 C 67 71.0664 65.8992 72 63.9122 72 L 27.0879 72 C 25.101 72 24 71.0664 24 69.3809 L 24 57.6191 Z" fill="#94cd67"/>
		</g>
		<g>
			<path d="M 78 57.6191 C 78 55.9336 79.101 55 81.0879 55 L 117.9122 55 C 119.8992 55 121 55.9336 121 57.6191 L 121 69.3809 C 121 71.0664 119.8992 72 117.9122 72 L 81.0879 72 C 79.101 72 78 71.0664 78 69.3809 L 78 57.6191 Z" fill="#e9edf1"/>
		</g>
		<path id="ui-icon-arrow-d" d="M 92 62.1106 L 91.001 61 L 88.5 63.778 L 86.0004 61 L 85 62.111 L 88.4994 66 L 89.4998 64.889 L 89.4998 64.8887 L 92 62.1106 Z" fill="#a7b7c9"/>
		<path id="ui-icon-arrow-d2" d="M 38 62.1106 L 37.001 61 L 34.5 63.778 L 32.0004 61 L 31 62.111 L 34.4994 66 L 35.4998 64.889 L 35.4998 64.8887 L 38 62.1106 Z" fill="#ffffff"/>
	</g>
</svg>