<?xml version="1.0" standalone="no"?>
<!-- Generator: Adobe Fireworks 10, Export SVG Extension by Aaron Beall (http://fireworks.abeall.com) . Version: 0.6.1  -->
<!DOCTYPE svg PUBLIC "-//W3C//DTD SVG 1.1//EN" "http://www.w3.org/Graphics/SVG/1.1/DTD/svg11.dtd">
<svg id="Untitled-Page%201" viewBox="0 0 292 257" style="background-color:#ffffff00" version="1.1"
	xmlns="http://www.w3.org/2000/svg" xmlns:xlink="http://www.w3.org/1999/xlink" xml:space="preserve"
	x="0px" y="0px" width="292px" height="257px"
>
	<g id="Layer%201">
		<g>
			<path d="M 1.2754 10.5993 C 1.2754 4.6375 4.8617 1 10.7393 1 L 282.0353 1 C 287.9128 1 291.4996 4.6375 291.4996 10.5993 L 291.4996 246.4007 C 291.4996 252.3627 287.9128 256 282.0353 256 L 10.7393 256 C 4.8617 256 1.2754 252.3627 1.2754 246.4007 L 1.2754 10.5993 Z" stroke="#cacad0" stroke-width="1" fill="#ffffff"/>
		</g>
		<path id="Ellipse" d="M 24.2931 10 C 24.2931 8.3431 25.6373 7 27.2954 7 C 28.9536 7 30.2977 8.3431 30.2977 10 C 30.2977 11.6569 28.9536 13 27.2954 13 C 25.6373 13 24.2931 11.6569 24.2931 10 Z" fill="#dae0e6"/>
		<path id="Ellipse2" d="M 34.3009 10 C 34.3009 8.3431 35.645 7 37.3032 7 C 38.9613 7 40.3055 8.3431 40.3055 10 C 40.3055 11.6569 38.9613 13 37.3032 13 C 35.645 13 34.3009 11.6569 34.3009 10 Z" fill="#dae0e6"/>
		<path id="Ellipse3" d="M 44.3086 10 C 44.3086 8.3431 45.6528 7 47.3109 7 C 48.969 7 50.3132 8.3431 50.3132 10 C 50.3132 11.6569 48.969 13 47.3109 13 C 45.6528 13 44.3086 11.6569 44.3086 10 Z" fill="#dae0e6"/>
		<g>
			<path d="M 213 127.5 C 213 126.0338 214.582 125 216.8257 125 L 254.1743 125 C 256.418 125 258 126.0338 258 127.5 L 258 127.5 C 258 128.8807 256.418 130 254.1743 130 L 216.8257 130 C 214.582 130 213 128.8807 213 127.5 L 213 127.5 Z" fill="#a7b7c9"/>
		</g>
		<g>
			<path d="M 220 135.5 C 220 134.4184 220.5432 134 221.9474 134 L 248.0526 134 C 249.4568 134 250 134.4184 250 135.5 L 250 135.5 C 250 136.3285 249.4568 137 248.0526 137 L 221.9474 137 C 220.5432 137 220 136.3284 220 135.5 L 220 135.5 Z" fill="#e8ebf0"/>
		</g>
		<g>
			<path d="M 33 127.5 C 33 126.0338 34.582 125 36.8257 125 L 74.1743 125 C 76.418 125 78 126.0338 78 127.5 L 78 127.5 C 78 128.8807 76.418 130 74.1743 130 L 36.8257 130 C 34.582 130 33 128.8807 33 127.5 L 33 127.5 Z" fill="#a7b7c9"/>
		</g>
		<g>
			<path d="M 40 135.5 C 40 134.4184 40.5432 134 41.9474 134 L 68.0526 134 C 69.4568 134 70 134.4184 70 135.5 L 70 135.5 C 70 136.3285 69.4568 137 68.0526 137 L 41.9474 137 C 40.5432 137 40 136.3284 40 135.5 L 40 135.5 Z" fill="#e8ebf0"/>
		</g>
		<g opacity="0.251">
			<path d="M 110 77.2915 C 110 73.3284 111.3232 72 115.2706 72 L 174.7288 72 C 178.6763 72 180 73.3284 180 77.2915 L 180 108.7084 C 180 112.6717 178.6763 114 174.7288 114 L 115.2706 114 C 111.3232 114 110 112.6717 110 108.7084 L 110 77.2915 Z" fill="#a7b7c9"/>
		</g>
		<g>
			<path d="M 123 127.5 C 123 126.0338 124.582 125 126.8257 125 L 164.1743 125 C 166.418 125 168 126.0338 168 127.5 L 168 127.5 C 168 128.8807 166.418 130 164.1743 130 L 126.8257 130 C 124.582 130 123 128.8807 123 127.5 L 123 127.5 Z" fill="#a7b7c9"/>
		</g>
		<g>
			<path d="M 130 135.5 C 130 134.4184 130.5432 134 131.9474 134 L 158.0526 134 C 159.4568 134 160 134.4184 160 135.5 L 160 135.5 C 160 136.3285 159.4568 137 158.0526 137 L 131.9474 137 C 130.5432 137 130 136.3284 130 135.5 L 130 135.5 Z" fill="#e8ebf0"/>
		</g>
		<g>
			<path d="M 213 208.5 C 213 207.0338 214.582 206 216.8257 206 L 254.1743 206 C 256.418 206 258 207.0338 258 208.5 L 258 208.5 C 258 209.8807 256.418 211 254.1743 211 L 216.8257 211 C 214.582 211 213 209.8807 213 208.5 L 213 208.5 Z" fill="#a7b7c9"/>
		</g>
		<g>
			<path d="M 220 216.5 C 220 215.4184 220.5432 215 221.9474 215 L 248.0526 215 C 249.4568 215 250 215.4184 250 216.5 L 250 216.5 C 250 217.3285 249.4568 218 248.0526 218 L 221.9474 218 C 220.5432 218 220 217.3284 220 216.5 L 220 216.5 Z" fill="#e8ebf0"/>
		</g>
		<g>
			<path d="M 33 208.5 C 33 207.0338 34.582 206 36.8257 206 L 74.1743 206 C 76.418 206 78 207.0338 78 208.5 L 78 208.5 C 78 209.8807 76.418 211 74.1743 211 L 36.8257 211 C 34.582 211 33 209.8807 33 208.5 L 33 208.5 Z" fill="#a7b7c9"/>
		</g>
		<g>
			<path d="M 40 216.5 C 40 215.4184 40.5432 215 41.9474 215 L 68.0526 215 C 69.4568 215 70 215.4184 70 216.5 L 70 216.5 C 70 217.3285 69.4568 218 68.0526 218 L 41.9474 218 C 40.5432 218 40 217.3284 40 216.5 L 40 216.5 Z" fill="#e8ebf0"/>
		</g>
		<g opacity="0.251">
			<path d="M 110 158.2915 C 110 154.3284 111.3232 153 115.2706 153 L 174.7288 153 C 178.6763 153 180 154.3284 180 158.2915 L 180 189.7084 C 180 193.6717 178.6763 195 174.7288 195 L 115.2706 195 C 111.3232 195 110 193.6717 110 189.7084 L 110 158.2915 Z" fill="#a7b7c9"/>
		</g>
		<g opacity="0.251">
			<path d="M 200 158.2915 C 200 154.3284 201.3232 153 205.2706 153 L 264.7288 153 C 268.6763 153 270 154.3284 270 158.2915 L 270 189.7084 C 270 193.6717 268.6763 195 264.7288 195 L 205.2706 195 C 201.3232 195 200 193.6717 200 189.7084 L 200 158.2915 Z" fill="#a7b7c9"/>
		</g>
		<g opacity="0.251">
			<path d="M 22 158.2915 C 22 154.3284 23.3232 153 27.2706 153 L 86.7288 153 C 90.6763 153 92 154.3284 92 158.2915 L 92 189.7084 C 92 193.6717 90.6763 195 86.7288 195 L 27.2706 195 C 23.3232 195 22 193.6717 22 189.7084 L 22 158.2915 Z" fill="#a7b7c9"/>
		</g>
		<g opacity="0.251">
			<path d="M 200 77.2915 C 200 73.3284 201.3232 72 205.2706 72 L 264.7288 72 C 268.6763 72 270 73.3284 270 77.2915 L 270 108.7084 C 270 112.6717 268.6763 114 264.7288 114 L 205.2706 114 C 201.3232 114 200 112.6717 200 108.7084 L 200 77.2915 Z" fill="#a7b7c9"/>
		</g>
		<g opacity="0.251">
			<path d="M 22 77.2915 C 22 73.3284 23.3232 72 27.2706 72 L 86.7288 72 C 90.6763 72 92 73.3284 92 77.2915 L 92 108.7084 C 92 112.6717 90.6763 114 86.7288 114 L 27.2706 114 C 23.3232 114 22 112.6717 22 108.7084 L 22 77.2915 Z" fill="#a7b7c9"/>
		</g>
		<g>
			<path d="M 123 208.5 C 123 207.0338 124.582 206 126.8257 206 L 164.1743 206 C 166.418 206 168 207.0338 168 208.5 L 168 208.5 C 168 209.8807 166.418 211 164.1743 211 L 126.8257 211 C 124.582 211 123 209.8807 123 208.5 L 123 208.5 Z" fill="#a7b7c9"/>
		</g>
		<g>
			<path d="M 130 216.5 C 130 215.4184 130.5432 215 131.9474 215 L 158.0526 215 C 159.4568 215 160 215.4184 160 216.5 L 160 216.5 C 160 217.3285 159.4568 218 158.0526 218 L 131.9474 218 C 130.5432 218 130 217.3284 130 216.5 L 130 216.5 Z" fill="#e8ebf0"/>
		</g>
		<path id="Line" opacity="0.502" d="M 1.5004 19.5 L 291.7246 19.5 " stroke="#b9b9c8" stroke-width="1" fill="none"/>
		<g>
			<path d="M 176.4189 48 C 176.4189 45.2385 179.4558 43 183.2017 43 L 263.416 43 C 267.162 43 270.1987 45.2385 270.1987 48 L 270.1987 48 C 270.1987 50.7615 267.162 53 263.416 53 L 183.2017 53 C 179.4558 53 176.4189 50.7615 176.4189 48 L 176.4189 48 Z" fill="#8eb2fa"/>
		</g>
		<g id="archive-black-box">
			<path d="M 59.2871 91.7525 C 59.1198 91.9174 58.9214 91.9999 58.6921 91.9999 L 55.3076 91.9999 C 55.0785 91.9999 54.8801 91.9174 54.7126 91.7525 C 54.5452 91.5876 54.4614 91.3923 54.4614 91.1665 C 54.4614 90.9408 54.5452 90.7455 54.7126 90.5806 C 54.8801 90.4156 55.0784 90.3331 55.3076 90.3331 L 58.6924 90.3331 C 58.9214 90.3331 59.1198 90.4156 59.2874 90.5806 C 59.4548 90.7455 59.5385 90.9408 59.5385 91.1665 C 59.5385 91.3923 59.4546 91.5876 59.2871 91.7525 L 59.2871 91.7525 ZM 66.3079 87.8333 L 47.6924 87.8333 C 47.4631 87.8333 47.2648 87.9157 47.0974 88.0807 C 46.9299 88.2456 46.8462 88.4409 46.8462 88.6666 L 46.8462 101.1665 C 46.8462 101.3922 46.9299 101.5876 47.0974 101.7525 C 47.2648 101.9174 47.4631 102 47.6924 102 L 66.3079 102 C 66.537 102 66.7351 101.9174 66.9027 101.7525 C 67.0701 101.5877 67.1538 101.3922 67.1538 101.1665 L 67.1538 88.6666 C 67.1538 88.4408 67.0704 88.2456 66.9027 88.0807 C 66.7354 87.9157 66.537 87.8333 66.3079 87.8333 L 66.3079 87.8333 Z" fill="#a7b7c9"/>
			<path d="M 67.749 82.2474 C 67.5815 82.0824 67.3833 82 67.1541 82 L 46.8462 82 C 46.6169 82 46.4187 82.0824 46.2512 82.2474 C 46.0837 82.4122 46 82.6076 46 82.8333 L 46 86.1666 C 46 86.3922 46.0837 86.5875 46.2512 86.7525 C 46.4187 86.9174 46.6169 86.9999 46.8462 86.9999 L 67.1538 86.9999 C 67.3828 86.9999 67.5813 86.9174 67.749 86.7525 C 67.9163 86.5875 68 86.3923 68 86.1666 L 68 82.8333 C 68 82.6074 67.9163 82.4122 67.749 82.2474 L 67.749 82.2474 Z" fill="#a7b7c9"/>
		</g>
		<g id="archive-black-box2">
			<path d="M 146.2871 91.7525 C 146.1198 91.9174 145.9214 91.9999 145.6921 91.9999 L 142.3076 91.9999 C 142.0785 91.9999 141.8801 91.9174 141.7126 91.7525 C 141.5452 91.5876 141.4614 91.3923 141.4614 91.1665 C 141.4614 90.9408 141.5452 90.7455 141.7126 90.5806 C 141.8801 90.4156 142.0784 90.3331 142.3076 90.3331 L 145.6924 90.3331 C 145.9214 90.3331 146.1198 90.4156 146.2874 90.5806 C 146.4548 90.7455 146.5385 90.9408 146.5385 91.1665 C 146.5385 91.3923 146.4546 91.5876 146.2871 91.7525 L 146.2871 91.7525 ZM 153.3079 87.8333 L 134.6924 87.8333 C 134.4631 87.8333 134.2648 87.9157 134.0974 88.0807 C 133.9299 88.2456 133.8462 88.4409 133.8462 88.6666 L 133.8462 101.1665 C 133.8462 101.3922 133.9299 101.5876 134.0974 101.7525 C 134.2648 101.9174 134.4631 102 134.6924 102 L 153.3079 102 C 153.537 102 153.7351 101.9174 153.9027 101.7525 C 154.0701 101.5877 154.1538 101.3922 154.1538 101.1665 L 154.1538 88.6666 C 154.1538 88.4408 154.0704 88.2456 153.9027 88.0807 C 153.7354 87.9157 153.537 87.8333 153.3079 87.8333 L 153.3079 87.8333 Z" fill="#a7b7c9"/>
			<path d="M 154.749 82.2474 C 154.5815 82.0824 154.3833 82 154.1541 82 L 133.8462 82 C 133.6169 82 133.4187 82.0824 133.2512 82.2474 C 133.0837 82.4122 133 82.6076 133 82.8333 L 133 86.1666 C 133 86.3922 133.0837 86.5875 133.2512 86.7525 C 133.4187 86.9174 133.6169 86.9999 133.8462 86.9999 L 154.1538 86.9999 C 154.3828 86.9999 154.5813 86.9174 154.749 86.7525 C 154.9163 86.5875 155 86.3923 155 86.1666 L 155 82.8333 C 155 82.6074 154.9163 82.4122 154.749 82.2474 L 154.749 82.2474 Z" fill="#a7b7c9"/>
		</g>
		<g id="archive-black-box3">
			<path d="M 237.2871 91.7525 C 237.1198 91.9174 236.9214 91.9999 236.6921 91.9999 L 233.3076 91.9999 C 233.0785 91.9999 232.8801 91.9174 232.7126 91.7525 C 232.5452 91.5876 232.4614 91.3923 232.4614 91.1665 C 232.4614 90.9408 232.5452 90.7455 232.7126 90.5806 C 232.8801 90.4156 233.0784 90.3331 233.3076 90.3331 L 236.6924 90.3331 C 236.9214 90.3331 237.1198 90.4156 237.2874 90.5806 C 237.4548 90.7455 237.5385 90.9408 237.5385 91.1665 C 237.5385 91.3923 237.4546 91.5876 237.2871 91.7525 L 237.2871 91.7525 ZM 244.3079 87.8333 L 225.6924 87.8333 C 225.4631 87.8333 225.2648 87.9157 225.0974 88.0807 C 224.9299 88.2456 224.8462 88.4409 224.8462 88.6666 L 224.8462 101.1665 C 224.8462 101.3922 224.9299 101.5876 225.0974 101.7525 C 225.2648 101.9174 225.4631 102 225.6924 102 L 244.3079 102 C 244.537 102 244.7351 101.9174 244.9027 101.7525 C 245.0701 101.5877 245.1538 101.3922 245.1538 101.1665 L 245.1538 88.6666 C 245.1538 88.4408 245.0704 88.2456 244.9027 88.0807 C 244.7354 87.9157 244.537 87.8333 244.3079 87.8333 L 244.3079 87.8333 Z" fill="#a7b7c9"/>
			<path d="M 245.749 82.2474 C 245.5815 82.0824 245.3833 82 245.1541 82 L 224.8462 82 C 224.6169 82 224.4187 82.0824 224.2512 82.2474 C 224.0837 82.4122 224 82.6076 224 82.8333 L 224 86.1666 C 224 86.3922 224.0837 86.5875 224.2512 86.7525 C 224.4187 86.9174 224.6169 86.9999 224.8462 86.9999 L 245.1538 86.9999 C 245.3828 86.9999 245.5813 86.9174 245.749 86.7525 C 245.9163 86.5875 246 86.3923 246 86.1666 L 246 82.8333 C 246 82.6074 245.9163 82.4122 245.749 82.2474 L 245.749 82.2474 Z" fill="#a7b7c9"/>
		</g>
		<g id="archive-black-box4">
			<path d="M 59.2871 173.7526 C 59.1198 173.9174 58.9214 173.9999 58.6921 173.9999 L 55.3076 173.9999 C 55.0785 173.9999 54.8801 173.9174 54.7126 173.7526 C 54.5452 173.5876 54.4614 173.3923 54.4614 173.1665 C 54.4614 172.9409 54.5452 172.7455 54.7126 172.5806 C 54.8801 172.4156 55.0784 172.3331 55.3076 172.3331 L 58.6924 172.3331 C 58.9214 172.3331 59.1198 172.4156 59.2874 172.5806 C 59.4548 172.7455 59.5385 172.9408 59.5385 173.1665 C 59.5385 173.3923 59.4546 173.5876 59.2871 173.7526 L 59.2871 173.7526 ZM 66.3079 169.8333 L 47.6924 169.8333 C 47.4631 169.8333 47.2648 169.9157 47.0974 170.0807 C 46.9299 170.2455 46.8462 170.4409 46.8462 170.6666 L 46.8462 183.1666 C 46.8462 183.3922 46.9299 183.5876 47.0974 183.7524 C 47.2648 183.9174 47.4631 184 47.6924 184 L 66.3079 184 C 66.537 184 66.7351 183.9174 66.9027 183.7524 C 67.0701 183.5877 67.1538 183.3922 67.1538 183.1666 L 67.1538 170.6666 C 67.1538 170.4407 67.0704 170.2456 66.9027 170.0807 C 66.7354 169.9157 66.537 169.8333 66.3079 169.8333 L 66.3079 169.8333 Z" fill="#a7b7c9"/>
			<path d="M 67.749 164.2474 C 67.5815 164.0824 67.3833 164 67.1541 164 L 46.8462 164 C 46.6169 164 46.4187 164.0824 46.2512 164.2474 C 46.0837 164.4122 46 164.6076 46 164.8333 L 46 168.1666 C 46 168.3922 46.0837 168.5875 46.2512 168.7525 C 46.4187 168.9174 46.6169 168.9999 46.8462 168.9999 L 67.1538 168.9999 C 67.3828 168.9999 67.5813 168.9174 67.749 168.7525 C 67.9163 168.5875 68 168.3923 68 168.1666 L 68 164.8333 C 68 164.6074 67.9163 164.4122 67.749 164.2474 L 67.749 164.2474 Z" fill="#a7b7c9"/>
		</g>
		<g id="archive-black-box5">
			<path d="M 146.2871 173.7526 C 146.1198 173.9174 145.9214 173.9999 145.6921 173.9999 L 142.3076 173.9999 C 142.0785 173.9999 141.8801 173.9174 141.7126 173.7526 C 141.5452 173.5876 141.4614 173.3923 141.4614 173.1665 C 141.4614 172.9409 141.5452 172.7455 141.7126 172.5806 C 141.8801 172.4156 142.0784 172.3331 142.3076 172.3331 L 145.6924 172.3331 C 145.9214 172.3331 146.1198 172.4156 146.2874 172.5806 C 146.4548 172.7455 146.5385 172.9408 146.5385 173.1665 C 146.5385 173.3923 146.4546 173.5876 146.2871 173.7526 L 146.2871 173.7526 ZM 153.3079 169.8333 L 134.6924 169.8333 C 134.4631 169.8333 134.2648 169.9157 134.0974 170.0807 C 133.9299 170.2455 133.8462 170.4409 133.8462 170.6666 L 133.8462 183.1666 C 133.8462 183.3922 133.9299 183.5876 134.0974 183.7524 C 134.2648 183.9174 134.4631 184 134.6924 184 L 153.3079 184 C 153.537 184 153.7351 183.9174 153.9027 183.7524 C 154.0701 183.5877 154.1538 183.3922 154.1538 183.1666 L 154.1538 170.6666 C 154.1538 170.4407 154.0704 170.2456 153.9027 170.0807 C 153.7354 169.9157 153.537 169.8333 153.3079 169.8333 L 153.3079 169.8333 Z" fill="#a7b7c9"/>
			<path d="M 154.749 164.2474 C 154.5815 164.0824 154.3833 164 154.1541 164 L 133.8462 164 C 133.6169 164 133.4187 164.0824 133.2512 164.2474 C 133.0837 164.4122 133 164.6076 133 164.8333 L 133 168.1666 C 133 168.3922 133.0837 168.5875 133.2512 168.7525 C 133.4187 168.9174 133.6169 168.9999 133.8462 168.9999 L 154.1538 168.9999 C 154.3828 168.9999 154.5813 168.9174 154.749 168.7525 C 154.9163 168.5875 155 168.3923 155 168.1666 L 155 164.8333 C 155 164.6074 154.9163 164.4122 154.749 164.2474 L 154.749 164.2474 Z" fill="#a7b7c9"/>
		</g>
		<g id="archive-black-box6">
			<path d="M 237.2871 173.7526 C 237.1198 173.9174 236.9214 173.9999 236.6921 173.9999 L 233.3076 173.9999 C 233.0785 173.9999 232.8801 173.9174 232.7126 173.7526 C 232.5452 173.5876 232.4614 173.3923 232.4614 173.1665 C 232.4614 172.9409 232.5452 172.7455 232.7126 172.5806 C 232.8801 172.4156 233.0784 172.3331 233.3076 172.3331 L 236.6924 172.3331 C 236.9214 172.3331 237.1198 172.4156 237.2874 172.5806 C 237.4548 172.7455 237.5385 172.9408 237.5385 173.1665 C 237.5385 173.3923 237.4546 173.5876 237.2871 173.7526 L 237.2871 173.7526 ZM 244.3079 169.8333 L 225.6924 169.8333 C 225.4631 169.8333 225.2648 169.9157 225.0974 170.0807 C 224.9299 170.2455 224.8462 170.4409 224.8462 170.6666 L 224.8462 183.1666 C 224.8462 183.3922 224.9299 183.5876 225.0974 183.7524 C 225.2648 183.9174 225.4631 184 225.6924 184 L 244.3079 184 C 244.537 184 244.7351 183.9174 244.9027 183.7524 C 245.0701 183.5877 245.1538 183.3922 245.1538 183.1666 L 245.1538 170.6666 C 245.1538 170.4407 245.0704 170.2456 244.9027 170.0807 C 244.7354 169.9157 244.537 169.8333 244.3079 169.8333 L 244.3079 169.8333 Z" fill="#a7b7c9"/>
			<path d="M 245.749 164.2474 C 245.5815 164.0824 245.3833 164 245.1541 164 L 224.8462 164 C 224.6169 164 224.4187 164.0824 224.2512 164.2474 C 224.0837 164.4122 224 164.6076 224 164.8333 L 224 168.1666 C 224 168.3922 224.0837 168.5875 224.2512 168.7525 C 224.4187 168.9174 224.6169 168.9999 224.8462 168.9999 L 245.1538 168.9999 C 245.3828 168.9999 245.5813 168.9174 245.749 168.7525 C 245.9163 168.5875 246 168.3923 246 168.1666 L 246 164.8333 C 246 164.6074 245.9163 164.4122 245.749 164.2474 L 245.749 164.2474 Z" fill="#a7b7c9"/>
		</g>
	</g>
</svg>