<?xml version="1.0" standalone="no"?>
<!-- Generator: Adobe Fireworks 10, Export SVG Extension by Aaron Beall (http://fireworks.abeall.com) . Version: 0.6.1  -->
<!DOCTYPE svg PUBLIC "-//W3C//DTD SVG 1.1//EN" "http://www.w3.org/Graphics/SVG/1.1/DTD/svg11.dtd">
<svg id="Untitled-Page%201" viewBox="0 0 292 257" style="background-color:#ffffff00" version="1.1"
	xmlns="http://www.w3.org/2000/svg" xmlns:xlink="http://www.w3.org/1999/xlink" xml:space="preserve"
	x="0px" y="0px" width="292px" height="257px"
>
	<g id="Layer%201">
		<g>
			<path d="M 1.2754 10.5993 C 1.2754 4.6375 4.8617 1 10.7393 1 L 282.0353 1 C 287.9128 1 291.4996 4.6375 291.4996 10.5993 L 291.4996 246.4007 C 291.4996 252.3627 287.9128 256 282.0353 256 L 10.7393 256 C 4.8617 256 1.2754 252.3627 1.2754 246.4007 L 1.2754 10.5993 Z" stroke="#cacad0" stroke-width="1" fill="#ffffff"/>
		</g>
		<path id="Ellipse" d="M 24.2931 10 C 24.2931 8.3431 25.6373 7 27.2954 7 C 28.9536 7 30.2977 8.3431 30.2977 10 C 30.2977 11.6569 28.9536 13 27.2954 13 C 25.6373 13 24.2931 11.6569 24.2931 10 Z" fill="#dae0e6"/>
		<path id="Ellipse2" d="M 34.3009 10 C 34.3009 8.3431 35.645 7 37.3032 7 C 38.9613 7 40.3055 8.3431 40.3055 10 C 40.3055 11.6569 38.9613 13 37.3032 13 C 35.645 13 34.3009 11.6569 34.3009 10 Z" fill="#dae0e6"/>
		<path id="Ellipse3" d="M 44.3086 10 C 44.3086 8.3431 45.6528 7 47.3109 7 C 48.969 7 50.3132 8.3431 50.3132 10 C 50.3132 11.6569 48.969 13 47.3109 13 C 45.6528 13 44.3086 11.6569 44.3086 10 Z" fill="#dae0e6"/>
		<path id="Line" opacity="0.502" d="M 1.5004 19.5 L 291.7246 19.5 " stroke="#b9b9c8" stroke-width="1" fill="none"/>
		<g>
			<path d="M 98.4189 69 C 98.4189 66.2385 101.4557 64 105.2017 64 L 185.416 64 C 189.162 64 192.1987 66.2385 192.1987 69 L 192.1987 69 C 192.1987 71.7615 189.162 74 185.416 74 L 105.2017 74 C 101.4557 74 98.4189 71.7615 98.4189 69 L 98.4189 69 Z" fill="#8eb2fa"/>
		</g>
		<g opacity="0.251">
			<path d="M 216.973 98.2107 C 216.973 93.5591 217.9565 92 220.8904 92 L 265.0822 92 C 268.0161 92 269 93.5591 269 98.2107 L 269 135.085 C 269 139.7367 268.0161 141.2958 265.0822 141.2958 L 220.8904 141.2958 C 217.9565 141.2958 216.973 139.7367 216.973 135.085 L 216.973 98.2107 Z" fill="#a7b7c9"/>
		</g>
		<path id="mountain-range" d="M 245.4189 107.3981 L 240.7973 113.5631 L 244.3243 118.2486 L 242.3784 119.7282 C 240.3107 117.0155 236.9053 112.3301 236.9053 112.3301 L 229.6081 122.1942 L 256.3649 122.1942 L 245.4189 107.3981 L 245.4189 107.3981 Z" fill="#a7b7c9"/>
		<g opacity="0.251">
			<path d="M 152.6486 98.2107 C 152.6486 93.5591 153.6321 92 156.566 92 L 200.7579 92 C 203.6918 92 204.6757 93.5591 204.6757 98.2107 L 204.6757 135.085 C 204.6757 139.7367 203.6918 141.2958 200.7579 141.2958 L 156.566 141.2958 C 153.6321 141.2958 152.6486 139.7367 152.6486 135.085 L 152.6486 98.2107 Z" fill="#a7b7c9"/>
		</g>
		<path id="mountain-range2" d="M 181.0945 107.3981 L 176.473 113.5631 L 179.9999 118.2486 L 178.054 119.7282 C 175.9864 117.0155 172.581 112.3301 172.581 112.3301 L 165.2838 122.1942 L 192.0405 122.1942 L 181.0945 107.3981 L 181.0945 107.3981 Z" fill="#a7b7c9"/>
		<g opacity="0.251">
			<path d="M 88.3243 98.2107 C 88.3243 93.5591 89.3078 92 92.2417 92 L 136.4336 92 C 139.3675 92 140.3514 93.5591 140.3514 98.2107 L 140.3514 135.085 C 140.3514 139.7367 139.3675 141.2958 136.4336 141.2958 L 92.2417 141.2958 C 89.3078 141.2958 88.3243 139.7367 88.3243 135.085 L 88.3243 98.2107 Z" fill="#a7b7c9"/>
		</g>
		<path id="mountain-range3" d="M 116.7702 107.3981 L 112.1487 113.5631 L 115.6756 118.2486 L 113.7297 119.7282 C 111.6621 117.0155 108.2567 112.3301 108.2567 112.3301 L 100.9594 122.1942 L 127.7162 122.1942 L 116.7702 107.3981 L 116.7702 107.3981 Z" fill="#a7b7c9"/>
		<g opacity="0.251">
			<path d="M 24 98.2107 C 24 93.5591 24.9835 92 27.9174 92 L 72.1092 92 C 75.0431 92 76.027 93.5591 76.027 98.2107 L 76.027 135.085 C 76.027 139.7367 75.0431 141.2958 72.1092 141.2958 L 27.9174 141.2958 C 24.9835 141.2958 24 139.7367 24 135.085 L 24 98.2107 Z" fill="#a7b7c9"/>
		</g>
		<path id="mountain-range4" d="M 52.4459 107.3981 L 47.8243 113.5631 L 51.3513 118.2486 L 49.4054 119.7282 C 47.3378 117.0155 43.9323 112.3301 43.9323 112.3301 L 36.6351 122.1942 L 63.3919 122.1942 L 52.4459 107.3981 L 52.4459 107.3981 Z" fill="#a7b7c9"/>
		<g opacity="0.251">
			<path d="M 216.973 158.9148 C 216.973 154.2633 217.9565 152.7041 220.8904 152.7041 L 265.0822 152.7041 C 268.0161 152.7041 269 154.2633 269 158.9148 L 269 195.7892 C 269 200.4408 268.0161 202 265.0822 202 L 220.8904 202 C 217.9565 202 216.973 200.4408 216.973 195.7892 L 216.973 158.9148 Z" fill="#a7b7c9"/>
		</g>
		<path id="mountain-range5" d="M 245.4189 168.8735 L 240.7973 175.0385 L 244.3243 179.724 L 242.3784 181.2036 C 240.3107 178.4909 236.9053 173.8055 236.9053 173.8055 L 229.6081 183.6696 L 256.3649 183.6696 L 245.4189 168.8735 L 245.4189 168.8735 Z" fill="#a7b7c9"/>
		<g opacity="0.251">
			<path d="M 152.6486 158.9148 C 152.6486 154.2633 153.6321 152.7041 156.566 152.7041 L 200.7579 152.7041 C 203.6918 152.7041 204.6757 154.2633 204.6757 158.9148 L 204.6757 195.7892 C 204.6757 200.4408 203.6918 202 200.7579 202 L 156.566 202 C 153.6321 202 152.6486 200.4408 152.6486 195.7892 L 152.6486 158.9148 Z" fill="#a7b7c9"/>
		</g>
		<path id="mountain-range6" d="M 181.0945 168.8735 L 176.473 175.0385 L 179.9999 179.724 L 178.054 181.2036 C 175.9864 178.4909 172.581 173.8055 172.581 173.8055 L 165.2838 183.6696 L 192.0405 183.6696 L 181.0945 168.8735 L 181.0945 168.8735 Z" fill="#a7b7c9"/>
		<g opacity="0.251">
			<path d="M 88.3243 158.9148 C 88.3243 154.2633 89.3078 152.7041 92.2417 152.7041 L 136.4336 152.7041 C 139.3675 152.7041 140.3514 154.2633 140.3514 158.9148 L 140.3514 195.7892 C 140.3514 200.4408 139.3675 202 136.4336 202 L 92.2417 202 C 89.3078 202 88.3243 200.4408 88.3243 195.7892 L 88.3243 158.9148 Z" fill="#a7b7c9"/>
		</g>
		<path id="mountain-range7" d="M 116.7702 168.8735 L 112.1487 175.0385 L 115.6756 179.724 L 113.7297 181.2036 C 111.6621 178.4909 108.2567 173.8055 108.2567 173.8055 L 100.9594 183.6696 L 127.7162 183.6696 L 116.7702 168.8735 L 116.7702 168.8735 Z" fill="#a7b7c9"/>
		<g opacity="0.251">
			<path d="M 24 158.9148 C 24 154.2633 24.9835 152.7041 27.9174 152.7041 L 72.1092 152.7041 C 75.0431 152.7041 76.027 154.2633 76.027 158.9148 L 76.027 195.7892 C 76.027 200.4408 75.0431 202 72.1092 202 L 27.9174 202 C 24.9835 202 24 200.4408 24 195.7892 L 24 158.9148 Z" fill="#a7b7c9"/>
		</g>
		<path id="mountain-range8" d="M 52.4459 168.8735 L 47.8243 175.0385 L 51.3513 179.724 L 49.4054 181.2036 C 47.3378 178.4909 43.9323 173.8055 43.9323 173.8055 L 36.6351 183.6696 L 63.3919 183.6696 L 52.4459 168.8735 L 52.4459 168.8735 Z" fill="#a7b7c9"/>
	</g>
</svg>