<?xml version="1.0" standalone="no"?>
<!-- Generator: Adobe Fireworks 10, Export SVG Extension by Aaron Beall (http://fireworks.abeall.com) . Version: 0.6.1  -->
<!DOCTYPE svg PUBLIC "-//W3C//DTD SVG 1.1//EN" "http://www.w3.org/Graphics/SVG/1.1/DTD/svg11.dtd">
<svg id="Untitled-Page%201" viewBox="0 0 292 257" style="background-color:#ffffff00" version="1.1"
	xmlns="http://www.w3.org/2000/svg" xmlns:xlink="http://www.w3.org/1999/xlink" xml:space="preserve"
	x="0px" y="0px" width="292px" height="257px"
>
	<g id="Layer%201">
		<g>
			<path d="M 1.2754 10.5994 C 1.2754 4.6375 4.8617 1 10.7393 1 L 282.0353 1 C 287.9128 1 291.4996 4.6375 291.4996 10.5994 L 291.4996 246.4006 C 291.4996 252.3627 287.9128 256 282.0353 256 L 10.7393 256 C 4.8617 256 1.2754 252.3627 1.2754 246.4006 L 1.2754 10.5994 Z" stroke="#cacad0" stroke-width="1" fill="#ffffff"/>
		</g>
		<path id="Ellipse" d="M 24.2931 10 C 24.2931 8.3431 25.6373 7 27.2954 7 C 28.9536 7 30.2977 8.3431 30.2977 10 C 30.2977 11.6569 28.9536 13 27.2954 13 C 25.6373 13 24.2931 11.6569 24.2931 10 Z" fill="#dae0e6"/>
		<path id="Ellipse2" d="M 34.3009 10 C 34.3009 8.3431 35.645 7 37.3032 7 C 38.9613 7 40.3055 8.3431 40.3055 10 C 40.3055 11.6569 38.9613 13 37.3032 13 C 35.645 13 34.3009 11.6569 34.3009 10 Z" fill="#dae0e6"/>
		<path id="Ellipse3" d="M 44.3086 10 C 44.3086 8.3431 45.6528 7 47.3109 7 C 48.969 7 50.3132 8.3431 50.3132 10 C 50.3132 11.6569 48.969 13 47.3109 13 C 45.6528 13 44.3086 11.6569 44.3086 10 Z" fill="#dae0e6"/>
		<path id="Line" opacity="0.502" d="M 1.5004 19.5 L 291.7246 19.5 " stroke="#b9b9c8" stroke-width="1" fill="none"/>
		<g opacity="0.502">
			<path d="M 202 49.1279 C 202 46.7853 202.7834 46 205.1208 46 L 266.8789 46 C 269.2162 46 270 46.7853 270 49.1279 L 270 191.8721 C 270 194.2147 269.2162 195 266.8789 195 L 205.1208 195 C 202.7834 195 202 194.2147 202 191.8721 L 202 49.1279 Z" stroke="#a7b7c9" stroke-width="1" fill="none"/>
		</g>
		<g>
			<path d="M 235 61.5 C 235 60.6202 235.9492 60 237.2954 60 L 259.7046 60 C 261.0508 60 262 60.6202 262 61.5 L 262 61.5 C 262 62.3285 261.0508 63 259.7046 63 L 237.2954 63 C 235.9492 63 235 62.3285 235 61.5 L 235 61.5 Z" fill="#a7b7c9"/>
		</g>
		<g opacity="0.749">
			<path d="M 211 71 C 211 70.2789 211.1132 70 211.4054 70 L 261.5945 70 C 261.8868 70 262 70.2789 262 71 L 262 71 C 262 71.5522 261.8868 72 261.5945 72 L 211.4054 72 C 211.1132 72 211 71.5522 211 71 L 211 71 Z" fill="#c8d2dd"/>
		</g>
		<g opacity="0.749">
			<path d="M 232 77 C 232 76.2791 232.0665 76 232.2384 76 L 261.7615 76 C 261.9335 76 262 76.2791 262 77 L 262 77 C 262 77.5522 261.9335 78 261.7615 78 L 232.2384 78 C 232.0665 78 232 77.5522 232 77 L 232 77 Z" fill="#c8d2dd"/>
		</g>
		<g opacity="0.749">
			<path d="M 220 91 C 220 90.2791 220.0665 90 220.2384 90 L 249.7615 90 C 249.9335 90 250 90.2791 250 91 L 250 91 C 250 91.5522 249.9335 92 249.7615 92 L 220.2384 92 C 220.0665 92 220 91.5522 220 91 L 220 91 Z" fill="#c8d2dd"/>
		</g>
		<g opacity="0.749">
			<path d="M 220 105 C 220 104.2791 220.0665 104 220.2384 104 L 249.7615 104 C 249.9335 104 250 104.2791 250 105 L 250 105 C 250 105.5522 249.9335 106 249.7615 106 L 220.2384 106 C 220.0665 106 220 105.5522 220 105 L 220 105 Z" fill="#c8d2dd"/>
		</g>
		<g opacity="0.749">
			<path d="M 220 118 C 220 117.2791 220.0665 117 220.2384 117 L 249.7615 117 C 249.9335 117 250 117.2791 250 118 L 250 118 C 250 118.5522 249.9335 119 249.7615 119 L 220.2384 119 C 220.0665 119 220 118.5522 220 118 L 220 118 Z" fill="#c8d2dd"/>
		</g>
		<g opacity="0.502">
			<path d="M 202 213.0677 C 202 210.7701 202.7682 210 205.0599 210 L 266.9398 210 C 269.2314 210 270 210.7701 270 213.0677 L 270 223.9321 C 270 226.2297 269.2314 227 266.9398 227 L 205.0599 227 C 202.7682 227 202 226.2297 202 223.9321 L 202 213.0677 Z" stroke="#a7b7c9" stroke-width="1" fill="none"/>
		</g>
		<g>
			<path d="M 206 215.3989 C 206 214.5785 206.7572 214 207.8311 214 L 213.1689 214 C 214.2428 214 215 214.5785 215 215.3989 L 215 221.6011 C 215 222.3737 214.2428 223 213.1689 223 L 207.8311 223 C 206.7572 223 206 222.3737 206 221.6011 L 206 215.3989 Z" fill="#a7b7c9"/>
		</g>
		<g>
			<path d="M 209 217.4663 C 209 217.1929 209.2524 217 209.6104 217 L 211.3896 217 C 211.7476 217 212 217.1929 212 217.4663 L 212 219.5337 C 212 219.7913 211.7476 220 211.3896 220 L 209.6104 220 C 209.2524 220 209 219.7913 209 219.5337 L 209 217.4663 Z" fill="#ffffff"/>
		</g>
		<g opacity="0.749">
			<path d="M 231 219 C 231 218.2791 231.0665 218 231.2384 218 L 260.7615 218 C 260.9335 218 261 218.2791 261 219 L 261 219 C 261 219.5522 260.9335 220 260.7615 220 L 231.2384 220 C 231.0665 220 231 219.5522 231 219 L 231 219 Z" fill="#c8d2dd"/>
		</g>
		<g>
			<path d="M 256 88.8903 C 256 88.3682 256.5048 88 257.2207 88 L 260.7793 88 C 261.4952 88 262 88.3682 262 88.8903 L 262 92.837 C 262 93.3287 261.4952 93.7273 260.7793 93.7273 L 257.2207 93.7273 C 256.5048 93.7273 256 93.3287 256 92.837 L 256 88.8903 Z" fill="#a7b7c9"/>
		</g>
		<g>
			<path d="M 258 90.2058 C 258 90.0319 258.1683 89.9091 258.4069 89.9091 L 259.5931 89.9091 C 259.8317 89.9091 260 90.0319 260 90.2058 L 260 91.5215 C 260 91.6853 259.8317 91.8182 259.5931 91.8182 L 258.4069 91.8182 C 258.1683 91.8182 258 91.6853 258 91.5215 L 258 90.2058 Z" fill="#ffffff"/>
		</g>
		<g>
			<path d="M 256 102.7084 C 256.5247 102.7084 257.2207 102.2009 257.2207 101.8182 L 260.7793 101.8182 C 260.7793 102.4189 261.1764 102.7084 262 102.7084 L 262 106.6553 C 261.1764 106.6553 260.7793 106.9447 260.7793 107.5454 L 257.2207 107.5454 C 257.2207 107.1627 256.5247 106.6553 256 106.6553 L 256 102.7084 Z" fill="#8eb2fa"/>
		</g>
		<g>
			<path d="M 258 104.024 C 258 103.85 258.1683 103.7273 258.4069 103.7273 L 259.5931 103.7273 C 259.8317 103.7273 260 103.85 260 104.024 L 260 105.3396 C 260 105.5035 259.8317 105.6364 259.5931 105.6364 L 258.4069 105.6364 C 258.1683 105.6364 258 105.5035 258 105.3396 L 258 104.024 Z" fill="#ffffff"/>
		</g>
		<g>
			<path d="M 235 148.5 C 235 147.6202 235.9492 147 237.2954 147 L 259.7046 147 C 261.0508 147 262 147.6202 262 148.5 L 262 148.5 C 262 149.3285 261.0508 150 259.7046 150 L 237.2954 150 C 235.9492 150 235 149.3285 235 148.5 L 235 148.5 Z" fill="#a7b7c9"/>
		</g>
		<g opacity="0.749">
			<path d="M 220 163 C 220 162.2791 220.0665 162 220.2384 162 L 249.7615 162 C 249.9335 162 250 162.2791 250 163 L 250 163 C 250 163.5522 249.9335 164 249.7615 164 L 220.2384 164 C 220.0665 164 220 163.5522 220 163 L 220 163 Z" fill="#c8d2dd"/>
		</g>
		<g opacity="0.749">
			<path d="M 220 177 C 220 176.2791 220.0665 176 220.2384 176 L 249.7615 176 C 249.9335 176 250 176.2791 250 177 L 250 177 C 250 177.5522 249.9335 178 249.7615 178 L 220.2384 178 C 220.0665 178 220 177.5522 220 177 L 220 177 Z" fill="#c8d2dd"/>
		</g>
		<g>
			<path d="M 256 160.8903 C 256 160.3682 256.5048 160 257.2207 160 L 260.7793 160 C 261.4952 160 262 160.3682 262 160.8903 L 262 164.837 C 262 165.3287 261.4952 165.7273 260.7793 165.7273 L 257.2207 165.7273 C 256.5048 165.7273 256 165.3287 256 164.837 L 256 160.8903 Z" fill="#a7b7c9"/>
		</g>
		<g>
			<path d="M 258 162.2058 C 258 162.0319 258.1683 161.9091 258.4069 161.9091 L 259.5931 161.9091 C 259.8317 161.9091 260 162.0319 260 162.2058 L 260 163.5215 C 260 163.6853 259.8317 163.8182 259.5931 163.8182 L 258.4069 163.8182 C 258.1683 163.8182 258 163.6853 258 163.5215 L 258 162.2058 Z" fill="#ffffff"/>
		</g>
		<g>
			<path d="M 256 174.7084 C 256.5247 174.7084 257.2207 174.2009 257.2207 173.8182 L 260.7793 173.8182 C 260.7793 174.4189 261.1764 174.7084 262 174.7084 L 262 178.6553 C 261.1764 178.6553 260.7793 178.9447 260.7793 179.5454 L 257.2207 179.5454 C 257.2207 179.1627 256.5247 178.6553 256 178.6553 L 256 174.7084 Z" fill="#8eb2fa"/>
		</g>
		<g>
			<path d="M 258 176.024 C 258 175.85 258.1683 175.7273 258.4069 175.7273 L 259.5931 175.7273 C 259.8317 175.7273 260 175.85 260 176.024 L 260 177.3396 C 260 177.5035 259.8317 177.6364 259.5931 177.6364 L 258.4069 177.6364 C 258.1683 177.6364 258 177.5035 258 177.3396 L 258 176.024 Z" fill="#ffffff"/>
		</g>
		<g>
			<path d="M 256 116.163 C 256 115.6409 256.5048 115.2727 257.2207 115.2727 L 260.7793 115.2727 C 261.4952 115.2727 262 115.6409 262 116.163 L 262 120.1097 C 262 120.6014 261.4952 121 260.7793 121 L 257.2207 121 C 256.5048 121 256 120.6014 256 120.1097 L 256 116.163 Z" fill="#a7b7c9"/>
		</g>
		<g>
			<path d="M 258 117.4785 C 258 117.3046 258.1683 117.1818 258.4069 117.1818 L 259.5931 117.1818 C 259.8317 117.1818 260 117.3046 260 117.4785 L 260 118.7942 C 260 118.9581 259.8317 119.0909 259.5931 119.0909 L 258.4069 119.0909 C 258.1683 119.0909 258 118.9581 258 118.7942 L 258 117.4785 Z" fill="#ffffff"/>
		</g>
		<g opacity="0.251">
			<path d="M 137.4813 89.0675 C 137.4813 86.7701 138.244 86 140.5194 86 L 177.9617 86 C 180.2369 86 181 86.7701 181 89.0675 L 181 122.9325 C 181 125.2299 180.2369 126 177.9617 126 L 140.5194 126 C 138.244 126 137.4813 125.2299 137.4813 122.9325 L 137.4813 89.0675 Z" fill="#a7b7c9"/>
		</g>
		<g>
			<path d="M 100 96.4305 C 100 95.5917 100.9492 95 102.2954 95 L 124.7046 95 C 126.0508 95 127 95.5917 127 96.4305 L 127 96.4305 C 127 97.2206 126.0508 97.8611 124.7046 97.8611 L 102.2954 97.8611 C 100.9492 97.8611 100 97.2206 100 96.4305 L 100 96.4305 Z" fill="#a7b7c9"/>
		</g>
		<g>
			<path d="M 151.7966 120.5714 C 151.7966 119.9534 152.1078 119.7142 152.9117 119.7142 L 167.86 119.7142 C 168.6641 119.7142 168.9751 119.9534 168.9751 120.5714 L 168.9751 120.5714 C 168.9751 121.0448 168.6641 121.4286 167.86 121.4286 L 152.9117 121.4286 C 152.1078 121.4286 151.7966 121.0448 151.7966 120.5714 L 151.7966 120.5714 Z" fill="#e8ebf0"/>
		</g>
		<path id="mountain-range" d="M 161.1146 98.5714 L 157.5541 103.3333 L 160.2714 106.9524 L 158.7721 108.0953 C 157.1792 106 154.5555 102.381 154.5555 102.381 L 148.9336 110 L 169.5477 110 L 161.1146 98.5714 L 161.1146 98.5714 Z" fill="#a7b7c9"/>
		<g opacity="0.749">
			<path d="M 42 105.1428 C 42 104.5248 42.1879 104.2858 42.6736 104.2858 L 126.0732 104.2858 C 126.559 104.2858 126.7469 104.5248 126.7469 105.1428 L 126.7469 105.1428 C 126.7469 105.6162 126.559 106 126.0732 106 L 42.6736 106 C 42.1879 106 42 105.6162 42 105.1428 L 42 105.1428 Z" fill="#c8d2dd"/>
		</g>
		<g opacity="0.749">
			<path d="M 76.45 110.8572 C 76.45 110.2391 76.5615 110 76.8497 110 L 126.347 110 C 126.6354 110 126.7469 110.2391 126.7469 110.8572 L 126.7469 110.8572 C 126.7469 111.3304 126.6354 111.7142 126.347 111.7142 L 76.8497 111.7142 C 76.5615 111.7142 76.45 111.3304 76.45 110.8572 L 76.45 110.8572 Z" fill="#c8d2dd"/>
		</g>
		<g opacity="0.251">
			<path d="M 137.4813 139.0675 C 137.4813 136.7701 138.244 136 140.5194 136 L 177.9617 136 C 180.2369 136 181 136.7701 181 139.0675 L 181 172.9325 C 181 175.2299 180.2369 176 177.9617 176 L 140.5194 176 C 138.244 176 137.4813 175.2299 137.4813 172.9325 L 137.4813 139.0675 Z" fill="#a7b7c9"/>
		</g>
		<g>
			<path d="M 100 146.4993 C 100 145.6604 100.9492 145.0687 102.2954 145.0687 L 124.7046 145.0687 C 126.0508 145.0687 127 145.6604 127 146.4993 L 127 146.4993 C 127 147.2893 126.0508 147.9298 124.7046 147.9298 L 102.2954 147.9298 C 100.9492 147.9298 100 147.2893 100 146.4993 L 100 146.4993 Z" fill="#a7b7c9"/>
		</g>
		<g>
			<path d="M 151.7966 170.5714 C 151.7966 169.9534 152.1078 169.7142 152.9117 169.7142 L 167.86 169.7142 C 168.6641 169.7142 168.9751 169.9534 168.9751 170.5714 L 168.9751 170.5714 C 168.9751 171.0448 168.6641 171.4286 167.86 171.4286 L 152.9117 171.4286 C 152.1078 171.4286 151.7966 171.0448 151.7966 170.5714 L 151.7966 170.5714 Z" fill="#e8ebf0"/>
		</g>
		<path id="mountain-range2" d="M 161.1146 148.5714 L 157.5541 153.3333 L 160.2714 156.9524 L 158.7721 158.0953 C 157.1792 156 154.5555 152.381 154.5555 152.381 L 148.9336 160 L 169.5477 160 L 161.1146 148.5714 L 161.1146 148.5714 Z" fill="#a7b7c9"/>
		<g opacity="0.749">
			<path d="M 42 155.1428 C 42 154.5248 42.1879 154.2858 42.6736 154.2858 L 126.0732 154.2858 C 126.559 154.2858 126.7469 154.5248 126.7469 155.1428 L 126.7469 155.1428 C 126.7469 155.6162 126.559 156 126.0732 156 L 42.6736 156 C 42.1879 156 42 155.6162 42 155.1428 L 42 155.1428 Z" fill="#c8d2dd"/>
		</g>
		<g opacity="0.749">
			<path d="M 76.45 160.8572 C 76.45 160.2391 76.5615 160 76.8497 160 L 126.347 160 C 126.6354 160 126.7469 160.2391 126.7469 160.8572 L 126.7469 160.8572 C 126.7469 161.3304 126.6354 161.7142 126.347 161.7142 L 76.8497 161.7142 C 76.5615 161.7142 76.45 161.3304 76.45 160.8572 L 76.45 160.8572 Z" fill="#c8d2dd"/>
		</g>
		<g opacity="0.251">
			<path d="M 137.4813 190.0675 C 137.4813 187.77 138.244 187 140.5194 187 L 177.9617 187 C 180.2369 187 181 187.77 181 190.0675 L 181 223.9325 C 181 226.23 180.2369 227 177.9617 227 L 140.5194 227 C 138.244 227 137.4813 226.23 137.4813 223.9325 L 137.4813 190.0675 Z" fill="#a7b7c9"/>
		</g>
		<g>
			<path d="M 100 197.5695 C 100 196.7303 100.9492 196.1389 102.2954 196.1389 L 124.7046 196.1389 C 126.0508 196.1389 127 196.7303 127 197.5695 L 127 197.5695 C 127 198.3596 126.0508 199 124.7046 199 L 102.2954 199 C 100.9492 199 100 198.3596 100 197.5695 L 100 197.5695 Z" fill="#a7b7c9"/>
		</g>
		<g>
			<path d="M 151.7966 221.5714 C 151.7966 220.9534 152.1078 220.7144 152.9117 220.7144 L 167.86 220.7144 C 168.6641 220.7144 168.9751 220.9534 168.9751 221.5714 L 168.9751 221.5714 C 168.9751 222.0449 168.6641 222.4286 167.86 222.4286 L 152.9117 222.4286 C 152.1078 222.4286 151.7966 222.0448 151.7966 221.5714 L 151.7966 221.5714 Z" fill="#e8ebf0"/>
		</g>
		<path id="mountain-range3" d="M 161.1146 199.5714 L 157.5541 204.3333 L 160.2714 207.9524 L 158.7721 209.0952 C 157.1792 207 154.5555 203.381 154.5555 203.381 L 148.9336 211 L 169.5477 211 L 161.1146 199.5714 L 161.1146 199.5714 Z" fill="#a7b7c9"/>
		<g opacity="0.749">
			<path d="M 42 206.1428 C 42 205.5249 42.1879 205.2856 42.6736 205.2856 L 126.0732 205.2856 C 126.559 205.2856 126.7469 205.5249 126.7469 206.1428 L 126.7469 206.1428 C 126.7469 206.6162 126.559 207 126.0732 207 L 42.6736 207 C 42.1879 207 42 206.6162 42 206.1428 L 42 206.1428 Z" fill="#c8d2dd"/>
		</g>
		<g opacity="0.749">
			<path d="M 76.45 211.8572 C 76.45 211.2391 76.5615 211 76.8497 211 L 126.347 211 C 126.6354 211 126.7469 211.2391 126.7469 211.8572 L 126.7469 211.8572 C 126.7469 212.3306 126.6354 212.7144 126.347 212.7144 L 76.8497 212.7144 C 76.5615 212.7144 76.45 212.3306 76.45 211.8572 L 76.45 211.8572 Z" fill="#c8d2dd"/>
		</g>
		<g>
			<path d="M 87.4189 62 C 87.4189 59.2385 90.4558 57 94.2017 57 L 174.416 57 C 178.162 57 181.1987 59.2385 181.1987 62 L 181.1987 62 C 181.1987 64.7615 178.162 67 174.416 67 L 94.2017 67 C 90.4558 67 87.4189 64.7615 87.4189 62 L 87.4189 62 Z" fill="#8eb2fa"/>
		</g>
		<path id="Line2" d="M 268.5 133.5 L 202.5 133.5 " stroke="#ebeff3" stroke-width="1" fill="none"/>
	</g>
</svg>