<svg viewBox="0 0 80.942 108.54" xmlns="http://www.w3.org/2000/svg"><g transform="translate(-129.9 -159)" data-name="Group 412"><g data-name="chat (7)"><g transform="translate(129.9 208.19)" data-name="Group 213"><ellipse transform="translate(2.998 2.137)" cx="25.597" cy="26.08" rx="25.597" ry="26.08" fill="rgba(231,235,238,0.85)" data-name="Ellipse 525"/><path d="M3.866 55.936l7.052-13.878 6.825 6.825z" fill="#e7ebed" data-name="Polygon 24"/><path d="M48.392 8.313A28.353 28.353 0 006.421 46.341c-1.271 2.6-2.767 4.335-4.466 5.166a2.645 2.645 0 00.76 4.988 13.493 13.493 0 002.007.154 18.337 18.337 0 0010.19-3.3 28.361 28.361 0 0033.48-45.036zm-2.268 37.826a25.159 25.159 0 01-30.51 3.907 1.6 1.6 0 00-1.793.107 15.271 15.271 0 01-8.9 3.266 16.138 16.138 0 004.862-6.71A1.614 1.614 0 009.509 45a25.146 25.146 0 1136.615 1.14z" fill="#a3b0b8" data-name="Path 1085"/><path d="M41.44 18.89H15.262a1.767 1.767 0 100 3.534H41.44a1.767 1.767 0 100-3.534z" fill="#a3b0b8" data-name="Path 1086"/><path d="M41.44 26.59H15.262a1.767 1.767 0 100 3.534H41.44a1.767 1.767 0 100-3.534z" fill="#a3b0b8" data-name="Path 1087"/><path d="M41.44 34.3H15.262a1.767 1.767 0 100 3.534H41.44a1.767 1.767 0 100-3.534z" fill="#a3b0b8" data-name="Path 1088"/></g></g><g data-name="chat (7)"><g transform="translate(154.14 192.75)" data-name="Group 213"><circle transform="translate(2.371 2.126)" cx="26.08" cy="26.08" r="26.08" fill="#fff" data-name="Ellipse 524"/><path d="M8.302 8.313a28.353 28.353 0 0141.971 38.028c1.271 2.6 2.767 4.335 4.466 5.166a2.645 2.645 0 01-.76 4.988 13.493 13.493 0 01-2.007.154 18.337 18.337 0 01-10.19-3.3A28.361 28.361 0 018.302 8.313zm2.268 37.826a25.159 25.159 0 0030.513 3.907 1.6 1.6 0 011.793.107 15.271 15.271 0 008.9 3.266 16.138 16.138 0 01-4.857-6.71A1.614 1.614 0 0147.183 45a25.146 25.146 0 10-36.615 1.14z" fill="#a3b0b8" data-name="Path 1085"/></g></g><g fill="#a3b0b8" data-name="Group 410"><path d="M185.44 227.79a5.01 5.01 0 01-6.3 0 1.355 1.355 0 10-1.774 2.048 7.715 7.715 0 009.849 0 1.355 1.355 0 00-1.774-2.048z" data-name="Path 9024"/><path d="M193.31 218.013a1.355 1.355 0 00-1.7.89 1.541 1.541 0 01-2.942 0 1.355 1.355 0 00-2.587.806 4.251 4.251 0 008.116 0 1.354 1.354 0 00-.887-1.696z" data-name="Path 9025"/><path d="M178.748 219.71a1.355 1.355 0 10-2.587-.806 1.541 1.541 0 01-2.941 0 1.355 1.355 0 10-2.587.806 4.251 4.251 0 008.116 0z" data-name="Path 9026"/></g><path d="M189.533 184.31c0 .774.444 1.027 1.2 1.027h5.642c.6 0 1.078-.3 1.078-.875s-.482-.875-1.078-.875h-4.057l4.78-5.68a1.159 1.159 0 00.292-.748.852.852 0 00-.964-.951h-5.478c-.6 0-1.078.3-1.078.875s.482.875 1.078.875h3.626l-4.7 5.554a1.212 1.212 0 00-.341.798z" fill="#bbc4c9" data-name="Path 9027"/><path d="M194.154 169.046h4.417a.677.677 0 100-1.353h-2.849l3.206-3.514a.91.91 0 00.273-.582.681.681 0 00-.712-.76h-4.12a.677.677 0 100 1.354h2.505l-3.265 3.55a.891.891 0 00-.226.629.7.7 0 00.771.676z" fill="#bbc4c9" data-name="Path 9028"/><path d="M187.201 163.644h3.3a.507.507 0 100-1.013h-2.132l2.4-2.63a.681.681 0 00.2-.435.509.509 0 00-.533-.569h-3.083a.507.507 0 100 1.013h1.875l-2.438 2.657a.667.667 0 00-.169.471.521.521 0 00.58.506z" fill="#bbc4c9" data-name="Path 9029"/><circle transform="translate(192.78 193.91)" cx="8.21" cy="8.21" r="8.21" fill="#ed1846" data-name="Ellipse 526"/><g fill="#fff" data-name="Group 355"><path d="M200.54 204.21a.82.82 0 10.82.82.82.82 0 00-.82-.82z" data-name="Path 1207"/><path d="M200.681 198c-1.438 0-2.1.852-2.1 1.428a.611.611 0 00.639.608c.575 0 .341-.82 1.428-.82.532 0 .959.235.959.724 0 .575-.6.905-.946 1.2a1.95 1.95 0 00-.714 1.62c0 .554.149.714.586.714.522 0 .631-.235.631-.437a1.338 1.338 0 01.6-1.332 2.728 2.728 0 001.193-1.95c-.006-.998-.912-1.755-2.276-1.755z" data-name="Path 1208"/></g></g></svg>